<svg width="565" height="603" viewBox="0 0 565 603" fill="none" xmlns="http://www.w3.org/2000/svg">
<g id="app_development_SVG">
<g id="&#208;&#161;&#208;&#187;&#208;&#190;&#208;&#185; 2">
<g id="&#208;&#161;&#208;&#187;&#208;&#190;&#208;&#185; 1">
<g id="Laptop">
<path id="Vector" d="M542.239 463.863L240.911 289.717C236.681 287.305 233.259 280.72 233.259 275.088V41.763C233.259 36.119 236.681 33.526 240.911 35.9742L542.239 210.121C546.468 212.533 549.89 219.117 549.89 224.749V458.074C549.938 463.718 546.516 466.311 542.239 463.863Z" fill="#B1B4C4"/>
<path id="Vector_2" d="M543.841 466.275L547.179 464.346L545.733 454.444L543.841 466.275Z" fill="#B1B4C4"/>
<path id="Vector_3" d="M232.717 37.385L236.006 35.4795L240.73 38.1809C240.73 38.1809 235.693 38.9407 235.573 38.9166C235.452 38.8925 232.717 37.385 232.717 37.385Z" fill="#B1B4C4"/>
<path id="Vector_4" d="M539.527 465.515L238.151 291.321C233.922 288.909 230.488 282.324 230.488 276.68V43.4154C230.488 37.7713 233.922 35.1784 238.151 37.6266L539.527 211.773C543.757 214.185 547.179 220.77 547.179 226.414V459.678C547.179 465.31 543.757 467.927 539.527 465.515Z" fill="#E4E7F2"/>
<path id="Vector_5" d="M538.997 465.769L237.621 291.622C233.392 289.21 229.958 282.625 229.958 276.981V43.6565C229.958 38.0245 233.392 35.4316 237.621 37.8677L538.997 212.014C543.214 214.426 546.649 221.011 546.649 226.655V459.98C546.649 465.624 543.214 468.217 538.997 465.769Z" fill="#D6D8E5"/>
<path id="Vector_6" d="M542.503 451.573L233.765 273.194L233.946 44.6208C233.946 42.2811 235.585 41.3284 237.561 42.4982L538.937 216.645C539.995 217.346 540.873 218.287 541.501 219.391C542.129 220.495 542.489 221.731 542.552 223L542.503 451.573Z" fill="white"/>
<path id="Vector_7" opacity="0.5" d="M542.407 451.586L233.765 273.206L233.862 44.6208C233.862 42.2811 235.5 41.3284 237.476 42.4982L538.852 216.645C539.91 217.347 540.788 218.288 541.416 219.392C542.043 220.496 542.404 221.732 542.467 223L542.407 451.586Z" fill="url(#paint0_linear)"/>
<path id="Vector_8" opacity="0.4" d="M311.691 601.347L10.3149 427.2C6.08548 424.788 6.61567 420.495 11.5199 417.673L213.413 301.005C218.233 298.195 225.68 297.881 229.897 300.329L531.285 474.476C535.503 476.888 534.972 481.181 530.08 484.003L328.175 600.672C323.295 603.481 315.908 603.795 311.691 601.347Z" fill="#D6D8E5"/>
<path id="Vector_9" d="M318.27 597.392L16.8701 423.306C12.6407 420.894 13.1708 416.6 18.0751 413.778L219.968 297.122C224.788 294.3 232.235 293.986 236.464 296.435L537.84 470.581C542.07 472.993 541.54 477.286 536.635 480.108L334.766 596.717C329.886 599.526 322.5 599.84 318.27 597.392Z" fill="#B1B4C4"/>
<path id="Vector_10" d="M14.0381 419.313V413.621L20.4244 416.298L14.0381 419.313Z" fill="#B1B4C4"/>
<path id="Vector_11" d="M540.696 474.777V469.218L535.973 470.846L539.106 475.453L540.696 474.777Z" fill="#B1B4C4"/>
<path id="Vector_12" d="M318.27 592.603L16.8701 418.481C12.6407 416.069 13.1708 411.776 18.0751 408.953L219.968 292.285C224.788 289.463 232.235 289.162 236.464 291.61L537.84 465.756C542.07 468.168 541.54 472.461 536.635 475.283L334.766 591.916C329.886 594.738 322.5 595.051 318.27 592.603Z" fill="#E4E7F2"/>
<path id="Vector_13" d="M318.27 591.868L16.8701 417.721C12.6407 415.309 13.1708 411.004 18.0751 408.194L219.968 291.525C224.788 288.703 232.235 288.402 236.464 290.838L537.84 464.996C542.07 467.408 541.54 471.702 536.635 474.524L334.766 591.18C329.886 594.002 322.5 594.304 318.27 591.868Z" fill="#D6D8E5"/>
<path id="Vector_14" d="M214.377 330.877L200.351 322.773C199.146 322.11 199.351 320.952 200.665 320.192L214.064 312.45C214.741 312.073 215.497 311.86 216.272 311.828C217.046 311.797 217.817 311.948 218.522 312.269L232.56 320.373C233.705 321.036 233.56 322.194 232.235 322.954L218.848 330.697C218.168 331.074 217.41 331.287 216.634 331.318C215.858 331.35 215.085 331.199 214.377 330.877Z" fill="#2B303F"/>
<path id="Vector_15" d="M234.247 342.358L220.209 334.242C219.064 333.59 219.209 332.433 220.534 331.661L233.922 323.93C234.601 323.553 235.359 323.34 236.135 323.309C236.912 323.277 237.685 323.428 238.392 323.749L252.418 331.854C253.623 332.517 253.418 333.675 252.105 334.435L238.705 342.165C238.03 342.547 237.274 342.763 236.499 342.797C235.724 342.831 234.953 342.68 234.247 342.358Z" fill="#2B303F"/>
<path id="Vector_16" d="M254.334 353.972L240.308 345.856C239.103 345.193 239.308 344.035 240.622 343.275L254.021 335.545C254.696 335.163 255.452 334.946 256.227 334.913C257.002 334.879 257.774 335.03 258.479 335.352L272.517 343.468C273.722 344.119 273.518 345.277 272.192 346.049L258.805 353.779C258.125 354.155 257.368 354.368 256.592 354.401C255.817 354.435 255.044 354.288 254.334 353.972Z" fill="#2B303F"/>
<path id="Vector_17" d="M273.975 365.309L259.937 357.205C258.792 356.542 258.937 355.384 260.262 354.624L273.65 346.882C274.329 346.504 275.087 346.291 275.863 346.26C276.64 346.229 277.413 346.379 278.12 346.701L292.158 354.805C293.303 355.468 293.158 356.626 291.833 357.386L278.445 365.128C277.766 365.506 277.008 365.718 276.232 365.75C275.455 365.781 274.683 365.63 273.975 365.309Z" fill="#2B303F"/>
<path id="Vector_18" d="M293.845 376.79L279.807 368.685C278.602 368.022 278.807 366.864 280.133 366.105L293.52 358.362C294.199 357.985 294.957 357.772 295.734 357.74C296.51 357.709 297.283 357.86 297.99 358.181L312.016 366.285C313.161 366.949 313.016 368.106 311.691 368.866L298.304 376.609C297.627 376.986 296.87 377.199 296.096 377.23C295.322 377.262 294.551 377.111 293.845 376.79Z" fill="#2B303F"/>
<path id="Vector_19" d="M313.703 388.332L299.677 380.227C298.532 379.564 298.665 378.406 299.99 377.647L313.378 369.904C314.057 369.527 314.815 369.314 315.591 369.282C316.368 369.251 317.141 369.402 317.848 369.723L331.886 377.827C333.031 378.491 332.886 379.648 331.561 380.408L318.173 388.151C317.494 388.528 316.736 388.741 315.96 388.772C315.183 388.804 314.411 388.653 313.703 388.332Z" fill="#2B303F"/>
<path id="Vector_20" d="M333.573 399.752L319.535 391.647C318.39 390.984 318.535 389.826 319.861 389.066L333.248 381.324C333.927 380.947 334.685 380.734 335.462 380.702C336.238 380.671 337.011 380.822 337.718 381.143L351.744 389.247C352.889 389.911 352.744 391.068 351.431 391.828L338.032 399.559C337.356 399.94 336.6 400.157 335.825 400.191C335.051 400.224 334.279 400.074 333.573 399.752Z" fill="#2B303F"/>
<path id="Vector_21" d="M353.431 411.245L339.405 403.128C338.26 402.465 338.405 401.319 339.718 400.548L353.118 392.817C353.793 392.435 354.549 392.219 355.324 392.185C356.098 392.152 356.87 392.302 357.576 392.624L371.614 400.741C372.819 401.404 372.614 402.55 371.289 403.321L357.877 411.04C357.204 411.42 356.451 411.636 355.678 411.672C354.906 411.708 354.136 411.561 353.431 411.245Z" fill="#2B303F"/>
<path id="Vector_22" d="M373.301 422.703L359.263 414.598C358.118 413.935 358.263 412.777 359.589 412.018L372.976 404.287C373.653 403.905 374.411 403.689 375.188 403.655C375.965 403.621 376.739 403.772 377.446 404.094L391.472 412.21C392.617 412.862 392.472 414.019 391.159 414.791L377.772 422.522C377.092 422.899 376.334 423.112 375.558 423.143C374.782 423.175 374.009 423.024 373.301 422.703Z" fill="#2B303F"/>
<path id="Vector_23" d="M393.159 434.159L379.133 426.055C377.988 425.391 378.133 424.234 379.446 423.474L392.821 415.755C393.499 415.378 394.255 415.165 395.029 415.134C395.804 415.103 396.574 415.253 397.28 415.574L411.318 423.679C412.463 424.342 412.318 425.5 410.992 426.26L397.641 434.002C396.959 434.378 396.197 434.587 395.419 434.615C394.64 434.642 393.866 434.486 393.159 434.159Z" fill="#2B303F"/>
<path id="Vector_24" d="M413.029 445.665L398.991 437.56C397.847 436.897 397.991 435.739 399.317 434.979L412.704 427.237C413.383 426.86 414.141 426.647 414.918 426.615C415.694 426.584 416.467 426.735 417.174 427.056L431.212 435.16C432.357 435.824 432.212 436.981 430.887 437.741L417.5 445.484C416.82 445.861 416.062 446.074 415.286 446.105C414.51 446.137 413.737 445.986 413.029 445.665Z" fill="#2B303F"/>
<path id="Vector_25" d="M432.899 457.145L418.861 449.041C417.716 448.378 417.861 447.22 419.186 446.46L432.586 438.717C433.265 438.34 434.023 438.127 434.799 438.096C435.576 438.064 436.348 438.215 437.056 438.537L451.082 446.641C452.287 447.304 452.082 448.462 450.757 449.222L437.405 456.964C436.722 457.349 435.957 457.567 435.174 457.598C434.39 457.629 433.611 457.474 432.899 457.145Z" fill="#2B303F"/>
<path id="Vector_26" d="M452.757 468.626L438.731 460.51C437.526 459.847 437.719 458.701 439.045 457.929L452.432 450.199C453.11 449.82 453.868 449.605 454.644 449.571C455.421 449.538 456.194 449.686 456.902 450.006L470.94 458.122C472.085 458.785 471.94 459.931 470.615 460.703L457.228 468.433C456.55 468.815 455.792 469.032 455.016 469.066C454.239 469.099 453.465 468.949 452.757 468.626Z" fill="#2B303F"/>
<path id="Vector_27" d="M482.194 485.631L458.589 471.991C457.444 471.328 457.589 470.17 458.914 469.41L472.35 461.68C473.027 461.298 473.785 461.081 474.562 461.048C475.339 461.014 476.112 461.164 476.82 461.487L500.365 475.163C501.51 475.826 501.365 476.984 500.052 477.744L486.653 485.486C485.973 485.858 485.215 486.064 484.441 486.089C483.666 486.114 482.897 485.957 482.194 485.631Z" fill="#2B303F"/>
<path id="Vector_28" d="M224.595 359.025L210.557 350.945C209.352 350.282 209.557 349.124 210.883 348.364L224.27 340.622C224.949 340.244 225.707 340.032 226.484 340C227.26 339.969 228.033 340.12 228.74 340.441L242.766 348.533C243.911 349.196 243.766 350.354 242.453 351.114L229.054 358.856C228.376 359.232 227.619 359.443 226.845 359.472C226.07 359.501 225.3 359.348 224.595 359.025Z" fill="#2B303F"/>
<path id="Vector_29" d="M244.489 370.53L230.464 362.426C229.319 361.763 229.463 360.605 230.777 359.845L244.176 352.151C244.853 351.774 245.61 351.561 246.384 351.529C247.158 351.498 247.929 351.649 248.635 351.97L262.685 360.026C263.829 360.689 263.685 361.847 262.359 362.607L248.972 370.349C248.291 370.729 247.531 370.943 246.752 370.974C245.974 371.006 245.199 370.854 244.489 370.53Z" fill="#2B303F"/>
<path id="Vector_30" d="M264.396 382.024L250.358 373.92C249.153 373.256 249.358 372.099 250.683 371.339L264.07 363.596C264.75 363.219 265.508 363.006 266.284 362.975C267.06 362.943 267.833 363.094 268.541 363.415L282.567 371.52C283.711 372.183 283.567 373.341 282.253 374.101L268.854 381.843C268.177 382.22 267.421 382.433 266.646 382.465C265.872 382.496 265.101 382.345 264.396 382.024Z" fill="#2B303F"/>
<path id="Vector_31" d="M284.29 393.529L270.252 385.412C269.107 384.761 269.252 383.603 270.577 382.832L283.965 375.065C284.643 374.686 285.401 374.471 286.177 374.437C286.953 374.404 287.727 374.553 288.435 374.872L302.449 383.025C303.594 383.688 303.449 384.834 302.124 385.605L288.736 393.336C288.062 393.714 287.308 393.928 286.536 393.962C285.764 393.995 284.994 393.847 284.29 393.529Z" fill="#2B303F"/>
<path id="Vector_32" d="M304.027 404.938L290.001 396.773C288.856 396.11 289.001 394.964 290.314 394.192L303.714 386.462C304.389 386.08 305.145 385.863 305.92 385.83C306.695 385.796 307.466 385.947 308.172 386.269L322.21 394.385C323.415 395.036 323.21 396.194 321.885 396.966L308.473 404.745C307.798 405.12 307.045 405.333 306.273 405.366C305.501 405.4 304.732 405.253 304.027 404.938Z" fill="#2B303F"/>
<path id="Vector_33" d="M323.933 416.431L309.896 408.327C308.751 407.663 308.895 406.506 310.221 405.746L323.608 397.979C324.287 397.602 325.046 397.389 325.822 397.358C326.598 397.326 327.371 397.477 328.079 397.798L342.104 405.903C343.249 406.566 343.105 407.724 341.791 408.483L328.392 416.226C327.717 416.607 326.961 416.824 326.187 416.86C325.413 416.895 324.641 416.748 323.933 416.431Z" fill="#2B303F"/>
<path id="Vector_34" d="M343.828 427.924L329.79 419.82C328.645 419.157 328.789 417.999 330.115 417.239L343.502 409.509C344.18 409.127 344.938 408.91 345.714 408.877C346.491 408.843 347.265 408.994 347.973 409.316L362.011 417.432C363.155 418.083 363.011 419.241 361.685 420.013L348.298 427.743C347.619 428.121 346.861 428.334 346.084 428.365C345.308 428.396 344.535 428.246 343.828 427.924Z" fill="#2B303F"/>
<path id="Vector_35" d="M363.722 439.429L349.696 431.325C348.551 430.662 348.696 429.504 350.021 428.744L363.408 421.002C364.086 420.624 364.842 420.411 365.616 420.38C366.39 420.349 367.161 420.5 367.867 420.821L381.905 428.925C383.05 429.588 382.905 430.746 381.579 431.506L368.192 439.248C367.513 439.626 366.755 439.839 365.978 439.87C365.202 439.901 364.429 439.75 363.722 439.429Z" fill="#2B303F"/>
<path id="Vector_36" d="M383.628 450.923L369.59 442.818C368.385 442.155 368.589 440.997 369.915 440.237L383.302 432.495C383.982 432.118 384.74 431.905 385.516 431.873C386.292 431.842 387.065 431.993 387.773 432.314L401.799 440.418C402.943 441.082 402.811 442.239 401.485 442.999L388.098 450.742C387.419 451.119 386.661 451.332 385.884 451.363C385.108 451.395 384.335 451.244 383.628 450.923Z" fill="#2B303F"/>
<path id="Vector_37" d="M403.522 462.428L389.496 454.311C388.351 453.66 388.496 452.502 389.809 451.73L403.208 444C403.886 443.624 404.641 443.41 405.415 443.377C406.189 443.343 406.96 443.491 407.667 443.807L421.741 451.923C422.886 452.587 422.741 453.744 421.416 454.504L408.028 462.235C407.346 462.623 406.582 462.842 405.798 462.876C405.015 462.91 404.234 462.756 403.522 462.428Z" fill="#2B303F"/>
<path id="Vector_38" d="M423.428 473.958L409.39 465.853C408.245 465.19 408.39 464.032 409.716 463.273L423.103 455.53C423.782 455.153 424.54 454.94 425.317 454.908C426.093 454.877 426.866 455.028 427.573 455.349L441.599 463.453C442.744 464.117 442.599 465.274 441.286 466.034L427.887 473.777C427.209 474.154 426.453 474.367 425.679 474.398C424.905 474.43 424.134 474.279 423.428 473.958Z" fill="#2B303F"/>
<path id="Vector_39" d="M443.322 485.426L429.296 477.31C428.152 476.647 428.284 475.501 429.61 474.729L442.997 466.999C443.675 466.619 444.433 466.404 445.209 466.371C445.985 466.337 446.759 466.486 447.467 466.806L461.505 474.922C462.65 475.585 462.505 476.731 461.18 477.503L447.793 485.233C447.115 485.615 446.357 485.832 445.58 485.865C444.804 485.899 444.03 485.748 443.322 485.426Z" fill="#2B303F"/>
<path id="Vector_40" d="M204.689 347.532L181.096 333.892C179.951 333.229 180.096 332.083 181.409 331.311L194.808 323.581C195.484 323.199 196.24 322.982 197.015 322.949C197.789 322.915 198.561 323.066 199.267 323.388L222.921 337.028C224.065 337.691 223.921 338.849 222.595 339.609L209.16 347.327C208.482 347.708 207.725 347.925 206.949 347.961C206.173 347.996 205.399 347.85 204.689 347.532Z" fill="#2B303F"/>
<path id="Vector_41" d="M481.23 486.367L467.204 478.262C466.559 477.932 465.845 477.76 465.12 477.76C464.395 477.76 463.681 477.932 463.035 478.262L448.889 486.439C447.684 487.102 447.684 488.176 448.889 488.851L450.009 489.502C451.07 490.105 451.058 491.106 450.009 491.721L434.996 500.356C433.791 501.032 433.791 502.105 434.996 502.768L443.924 507.93C444.568 508.257 445.281 508.428 446.003 508.428C446.725 508.428 447.437 508.257 448.082 507.93L462.083 499.85L464.975 498.173L467.06 496.967L469.157 495.761L481.206 488.803C482.375 488.103 482.375 487.03 481.23 486.367Z" fill="#2B303F"/>
<path id="Vector_42" d="M137.44 375.427L123.414 367.323C122.209 366.659 122.414 365.502 123.727 364.742L137.127 356.975C137.804 356.598 138.56 356.385 139.334 356.354C140.109 356.322 140.879 356.473 141.585 356.794L155.623 364.899C156.768 365.562 156.623 366.72 155.298 367.479L141.91 375.222C141.233 375.603 140.476 375.82 139.699 375.856C138.923 375.891 138.149 375.745 137.44 375.427Z" fill="#2B303F"/>
<path id="Vector_43" d="M157.249 386.872L143.223 378.767C142.019 378.104 142.223 376.946 143.537 376.186L156.936 368.444C157.613 368.067 158.369 367.854 159.144 367.822C159.918 367.791 160.689 367.942 161.394 368.263L175.432 376.367C176.577 377.031 176.433 378.188 175.107 378.948L161.72 386.691C161.041 387.068 160.282 387.281 159.506 387.312C158.73 387.344 157.957 387.193 157.249 386.872Z" fill="#2B303F"/>
<path id="Vector_44" d="M177.059 398.317L163.033 390.213C161.828 389.549 162.021 388.392 163.346 387.632L176.734 379.889C177.413 379.512 178.171 379.299 178.947 379.268C179.724 379.236 180.497 379.387 181.204 379.708L195.206 387.813C196.351 388.476 196.206 389.634 194.881 390.394L181.493 398.136C180.819 398.508 180.067 398.717 179.297 398.749C178.528 398.78 177.762 398.632 177.059 398.317Z" fill="#2B303F"/>
<path id="Vector_45" d="M345.755 495.798L331.718 487.682C330.513 487.031 330.717 485.873 332.043 485.101L345.43 477.371C346.108 476.991 346.866 476.776 347.642 476.743C348.419 476.709 349.192 476.858 349.901 477.178L363.902 485.294C365.107 485.957 364.902 487.103 363.577 487.875L350.214 495.666C349.534 496.038 348.775 496.244 348.001 496.267C347.226 496.29 346.456 496.13 345.755 495.798Z" fill="#2B303F"/>
<path id="Vector_46" d="M365.553 507.243L351.527 499.138C350.322 498.475 350.527 497.317 351.84 496.557L365.24 488.815C365.917 488.438 366.673 488.225 367.447 488.194C368.222 488.162 368.993 488.313 369.698 488.634L383.736 496.738C384.941 497.402 384.736 498.559 383.411 499.319L370.024 507.062C369.344 507.439 368.586 507.652 367.81 507.683C367.033 507.715 366.261 507.564 365.553 507.243Z" fill="#2B303F"/>
<path id="Vector_47" d="M385.363 518.688L371.337 510.584C370.192 509.92 370.337 508.763 371.65 508.003L385.05 500.26C385.727 499.883 386.483 499.67 387.257 499.639C388.032 499.607 388.803 499.758 389.508 500.079L403.546 508.184C404.751 508.847 404.546 510.005 403.221 510.765L389.833 518.507C389.154 518.884 388.396 519.097 387.62 519.129C386.843 519.16 386.071 519.009 385.363 518.688Z" fill="#2B303F"/>
<path id="Vector_48" d="M405.173 530.133L391.147 522.029C390.002 521.366 390.147 520.208 391.46 519.448L404.871 511.706C405.549 511.328 406.305 511.116 407.079 511.084C407.853 511.053 408.624 511.204 409.33 511.525L423.368 519.629C424.573 520.292 424.368 521.45 423.042 522.21L409.691 529.952C409.006 530.338 408.239 530.555 407.454 530.586C406.668 530.618 405.887 530.462 405.173 530.133Z" fill="#2B303F"/>
<path id="Vector_49" d="M201.966 412.717L182.831 401.658C181.686 400.995 181.831 399.837 183.156 399.077L196.544 391.335C197.223 390.957 197.981 390.744 198.757 390.713C199.534 390.682 200.307 390.833 201.014 391.154L220.149 402.213C221.354 402.876 221.149 404.022 219.824 404.794L206.437 412.524C205.759 412.906 205.001 413.123 204.224 413.156C203.448 413.19 202.674 413.039 201.966 412.717Z" fill="#2B303F"/>
<path id="Vector_50" d="M325.946 484.353L306.811 473.294C305.606 472.63 305.811 471.473 307.124 470.713L320.524 462.97C321.201 462.593 321.957 462.38 322.731 462.349C323.506 462.317 324.276 462.468 324.982 462.789L344.117 473.848C345.262 474.512 345.117 475.657 343.804 476.429L330.404 484.16C329.729 484.542 328.973 484.758 328.198 484.792C327.423 484.825 326.652 484.675 325.946 484.353Z" fill="#2B303F"/>
<path id="Vector_51" d="M301.027 469.953L207.75 416.069C206.605 415.406 206.75 414.248 208.063 413.488L221.462 405.746C222.139 405.368 222.896 405.156 223.67 405.124C224.444 405.093 225.215 405.244 225.921 405.565L319.21 459.485C320.354 460.148 320.21 461.306 318.884 462.066L305.497 469.808C304.815 470.18 304.055 470.387 303.279 470.412C302.503 470.437 301.731 470.28 301.027 469.953Z" fill="#2B303F"/>
<path id="Vector_52" d="M210.738 373.281L196.712 365.176C195.568 364.513 195.712 363.355 197.038 362.596L210.425 354.853C211.102 354.476 211.858 354.263 212.633 354.232C213.407 354.2 214.178 354.351 214.883 354.672L228.945 362.776C230.15 363.44 229.946 364.598 228.62 365.357L215.233 373.1C214.551 373.481 213.788 373.696 213.007 373.728C212.226 373.759 211.449 373.606 210.738 373.281Z" fill="#2B303F"/>
<path id="Vector_53" d="M230.584 384.713L216.558 376.597C215.414 375.934 215.558 374.788 216.872 374.016L230.271 366.285C230.947 365.906 231.703 365.691 232.477 365.658C233.252 365.624 234.023 365.773 234.729 366.093L248.767 374.209C249.972 374.872 249.767 376.018 248.442 376.79L235.055 384.52C234.377 384.902 233.619 385.119 232.842 385.152C232.066 385.186 231.292 385.035 230.584 384.713Z" fill="#2B303F"/>
<path id="Vector_54" d="M250.43 396.207L236.392 388.102C235.187 387.439 235.392 386.281 236.717 385.522L250.104 377.779C250.784 377.402 251.542 377.189 252.318 377.157C253.094 377.126 253.867 377.277 254.575 377.598L268.601 385.702C269.806 386.366 269.613 387.523 268.287 388.283L254.9 396.026C254.221 396.403 253.463 396.616 252.686 396.647C251.91 396.679 251.137 396.528 250.43 396.207Z" fill="#2B303F"/>
<path id="Vector_55" d="M270.276 407.627L256.238 399.523C255.033 398.86 255.238 397.702 256.563 396.942L269.914 389.248C270.594 388.87 271.352 388.658 272.128 388.626C272.905 388.595 273.677 388.746 274.385 389.067L288.411 397.171C289.616 397.834 289.411 398.992 288.098 399.752L274.734 407.495C274.053 407.864 273.295 408.069 272.521 408.092C271.747 408.115 270.978 407.956 270.276 407.627Z" fill="#2B303F"/>
<path id="Vector_56" d="M290.11 419.144L276.084 411.04C274.879 410.376 275.084 409.219 276.397 408.459L289.796 400.716C290.474 400.339 291.23 400.126 292.004 400.095C292.778 400.063 293.549 400.214 294.255 400.535L308.293 408.64C309.498 409.303 309.293 410.461 307.967 411.221L294.58 418.963C293.901 419.34 293.143 419.553 292.366 419.585C291.59 419.616 290.817 419.465 290.11 419.144Z" fill="#2B303F"/>
<path id="Vector_57" d="M309.956 430.614L295.93 422.498C294.725 421.834 294.917 420.689 296.243 419.917L309.678 412.186C310.356 411.804 311.114 411.588 311.891 411.554C312.667 411.521 313.441 411.671 314.149 411.994L328.187 420.11C329.332 420.773 329.187 421.919 327.861 422.691L314.474 430.421C313.791 430.811 313.024 431.032 312.238 431.066C311.452 431.099 310.67 430.944 309.956 430.614Z" fill="#2B303F"/>
<path id="Vector_58" d="M329.802 442.071L315.764 433.967C314.619 433.303 314.764 432.146 316.089 431.386L329.476 423.643C330.156 423.266 330.914 423.053 331.69 423.022C332.466 422.99 333.239 423.141 333.947 423.462L347.973 431.567C349.178 432.23 348.973 433.388 347.659 434.147L334.26 441.89C333.583 442.267 332.827 442.48 332.052 442.511C331.278 442.543 330.507 442.392 329.802 442.071Z" fill="#2B303F"/>
<path id="Vector_59" d="M349.647 453.54L335.609 445.435C334.465 444.772 334.609 443.614 335.935 442.855L349.322 435.112C350.001 434.735 350.759 434.522 351.536 434.49C352.312 434.459 353.085 434.61 353.792 434.931L367.818 443.035C368.963 443.699 368.818 444.857 367.493 445.616L354.106 453.359C353.429 453.736 352.672 453.949 351.898 453.98C351.124 454.012 350.353 453.861 349.647 453.54Z" fill="#2B303F"/>
<path id="Vector_60" d="M369.481 465.009L355.467 456.905C354.323 456.242 354.467 455.084 355.781 454.324L369.18 446.582C369.857 446.204 370.613 445.992 371.388 445.96C372.162 445.929 372.933 446.08 373.638 446.401L387.676 454.505C388.821 455.168 388.677 456.326 387.351 457.086L373.964 464.828C373.283 465.208 372.523 465.422 371.744 465.453C370.966 465.484 370.19 465.332 369.481 465.009Z" fill="#2B303F"/>
<path id="Vector_61" d="M389.328 476.477L375.29 468.361C374.145 467.698 374.289 466.552 375.615 465.78L389.002 458.05C389.68 457.668 390.438 457.451 391.214 457.418C391.991 457.384 392.765 457.535 393.473 457.857L407.511 465.973C408.655 466.624 408.511 467.782 407.185 468.554L393.798 476.284C393.12 476.664 392.362 476.879 391.586 476.912C390.809 476.946 390.036 476.797 389.328 476.477Z" fill="#2B303F"/>
<path id="Vector_62" d="M409.173 487.935L395.135 479.831C393.991 479.168 394.135 478.01 395.461 477.25L408.848 469.508C409.527 469.13 410.285 468.917 411.062 468.886C411.838 468.854 412.611 469.005 413.318 469.327L427.344 477.431C428.549 478.094 428.344 479.252 427.031 480.012L413.632 487.754C412.954 488.131 412.198 488.344 411.424 488.376C410.65 488.407 409.879 488.256 409.173 487.935Z" fill="#2B303F"/>
<path id="Vector_63" d="M428.971 499.404L414.945 491.299C413.8 490.636 413.945 489.478 415.27 488.719L428.657 480.976C429.335 480.599 430.091 480.386 430.865 480.355C431.639 480.323 432.41 480.474 433.116 480.795L447.154 488.9C448.299 489.563 448.154 490.721 446.828 491.48L433.477 499.283C432.789 499.657 432.022 499.863 431.238 499.884C430.455 499.905 429.678 499.74 428.971 499.404Z" fill="#2B303F"/>
<path id="Vector_64" d="M190.905 361.799L161.877 345.036C160.672 344.373 160.877 343.215 162.202 342.455L175.589 334.713C176.269 334.335 177.027 334.122 177.803 334.091C178.579 334.06 179.352 334.211 180.06 334.532L209.076 351.295C210.28 351.958 210.076 353.116 208.762 353.876L195.363 361.618C194.686 361.996 193.93 362.208 193.155 362.24C192.381 362.271 191.61 362.12 190.905 361.799Z" fill="#2B303F"/>
<path id="Vector_65" d="M181.638 378.683L167.612 370.603C166.467 369.94 166.6 368.794 167.925 368.022L181.313 360.292C181.99 359.91 182.748 359.693 183.525 359.66C184.302 359.626 185.075 359.777 185.783 360.099L199.821 368.215C200.966 368.867 200.821 370.024 199.496 370.796L186.109 378.527C185.427 378.9 184.668 379.109 183.892 379.136C183.116 379.163 182.344 379.008 181.638 378.683Z" fill="#2B303F"/>
<path id="Vector_66" d="M201.484 390.176L187.446 382.072C186.301 381.409 186.446 380.251 187.771 379.491L201.158 371.749C201.838 371.371 202.596 371.159 203.372 371.127C204.148 371.096 204.921 371.247 205.629 371.568L219.655 379.672C220.86 380.335 220.655 381.493 219.341 382.253L205.942 389.996C205.265 390.373 204.509 390.586 203.734 390.617C202.96 390.648 202.189 390.497 201.484 390.176Z" fill="#2B303F"/>
<path id="Vector_67" d="M221.318 401.597L207.256 393.529C206.051 392.865 206.255 391.72 207.581 390.948L220.968 383.217C221.647 382.838 222.404 382.623 223.181 382.59C223.957 382.556 224.73 382.705 225.439 383.024L239.477 391.141C240.682 391.804 240.477 392.95 239.151 393.722L225.764 401.452C225.086 401.822 224.33 402.028 223.558 402.054C222.786 402.079 222.018 401.922 221.318 401.597Z" fill="#2B303F"/>
<path id="Vector_68" d="M241.152 413.102L227.126 404.998C225.921 404.334 226.126 403.177 227.451 402.417L240.838 394.674C241.515 394.297 242.272 394.084 243.046 394.053C243.82 394.021 244.591 394.172 245.297 394.493L259.335 402.598C260.479 403.261 260.335 404.419 259.009 405.179L245.622 412.921C244.943 413.298 244.185 413.511 243.408 413.543C242.632 413.574 241.859 413.423 241.152 413.102Z" fill="#2B303F"/>
<path id="Vector_69" d="M260.998 424.572L247.02 416.468C245.875 415.804 246.02 414.647 247.345 413.887L260.733 406.144C261.412 405.767 262.17 405.554 262.946 405.523C263.723 405.491 264.496 405.642 265.203 405.963L279.229 414.068C280.374 414.731 280.241 415.889 278.916 416.648L265.528 424.379C264.844 424.771 264.075 424.993 263.287 425.026C262.498 425.06 261.713 424.904 260.998 424.572Z" fill="#2B303F"/>
<path id="Vector_70" d="M280.831 436.029L266.805 427.924C265.661 427.261 265.805 426.103 267.119 425.344L280.518 417.601C281.195 417.224 281.951 417.011 282.726 416.98C283.5 416.948 284.271 417.099 284.976 417.42L299.014 425.525C300.159 426.188 300.014 427.346 298.689 428.105L285.302 435.848C284.622 436.225 283.864 436.438 283.088 436.47C282.312 436.501 281.539 436.35 280.831 436.029Z" fill="#2B303F"/>
<path id="Vector_71" d="M300.677 447.498L286.639 439.393C285.494 438.73 285.639 437.572 286.965 436.813L300.352 429.07C301.031 428.693 301.789 428.48 302.566 428.448C303.342 428.417 304.115 428.568 304.822 428.889L318.848 436.993C319.993 437.657 319.848 438.814 318.535 439.574L305.148 447.317C304.468 447.694 303.71 447.907 302.934 447.938C302.158 447.97 301.385 447.819 300.677 447.498Z" fill="#2B303F"/>
<path id="Vector_72" d="M320.523 458.967L306.497 450.85C305.353 450.187 305.497 449.041 306.811 448.269L320.21 440.539C320.885 440.157 321.641 439.94 322.416 439.907C323.191 439.873 323.963 440.024 324.668 440.346L338.706 448.462C339.851 449.114 339.706 450.271 338.381 451.043L324.994 458.774C324.315 459.153 323.558 459.368 322.781 459.401C322.005 459.435 321.232 459.286 320.523 458.967Z" fill="#2B303F"/>
<path id="Vector_73" d="M340.357 470.424L326.319 462.319C325.175 461.656 325.319 460.498 326.645 459.738L340.032 451.996C340.711 451.618 341.469 451.406 342.246 451.374C343.022 451.343 343.795 451.494 344.502 451.815L358.528 459.919C359.673 460.583 359.528 461.74 358.215 462.5L344.816 470.243C344.139 470.62 343.382 470.833 342.608 470.864C341.834 470.895 341.063 470.745 340.357 470.424Z" fill="#2B303F"/>
<path id="Vector_74" d="M360.191 481.893L346.165 473.777C345.021 473.125 345.165 471.967 346.479 471.196L359.878 463.465C360.554 463.086 361.31 462.871 362.084 462.838C362.858 462.804 363.63 462.953 364.336 463.272L378.362 471.389C379.507 472.052 379.362 473.198 378.037 473.969L364.65 481.7C363.974 482.08 363.218 482.295 362.443 482.329C361.669 482.362 360.897 482.213 360.191 481.893Z" fill="#2B303F"/>
<path id="Vector_75" d="M380.037 493.35L365.999 485.246C364.854 484.583 364.999 483.425 366.324 482.665L379.712 474.923C380.391 474.545 381.149 474.332 381.925 474.301C382.702 474.27 383.475 474.42 384.182 474.742L398.208 482.846C399.353 483.509 399.208 484.667 397.895 485.427L384.495 493.169C383.818 493.547 383.062 493.759 382.288 493.791C381.513 493.822 380.742 493.671 380.037 493.35Z" fill="#2B303F"/>
<path id="Vector_76" d="M424.428 519.014L385.869 496.715C384.724 496.051 384.857 494.894 386.182 494.134L399.57 486.391C400.249 486.014 401.007 485.801 401.783 485.77C402.56 485.738 403.332 485.889 404.04 486.21L442.599 508.509C443.744 509.161 443.599 510.318 442.274 511.09L428.887 518.821C428.21 519.198 427.454 519.412 426.68 519.445C425.906 519.479 425.135 519.331 424.428 519.014Z" fill="#2B303F"/>
<path id="Vector_77" d="M161.804 367.25L142.669 356.191C141.464 355.528 141.669 354.37 142.983 353.61L156.382 345.88C157.057 345.498 157.813 345.281 158.588 345.248C159.363 345.214 160.135 345.365 160.84 345.687L179.975 356.746C181.12 357.409 180.975 358.567 179.662 359.327L166.287 367.069C165.607 367.45 164.846 367.665 164.067 367.697C163.288 367.728 162.513 367.575 161.804 367.25Z" fill="#2B303F"/>
<path id="Vector_78" d="M502.125 474.115L220.354 311.305C219.149 310.653 219.354 309.496 220.679 308.724L227.379 304.865C228.055 304.486 228.811 304.271 229.585 304.237C230.359 304.204 231.131 304.352 231.837 304.672L513.608 467.482C514.753 468.145 514.608 469.291 513.283 470.062L506.595 473.958C505.914 474.331 505.155 474.54 504.379 474.567C503.602 474.595 502.83 474.439 502.125 474.115Z" fill="#2B303F"/>
<path id="Vector_79" d="M327.572 492.626C327.17 493.504 326.482 494.218 325.62 494.653L248.092 539.455C246.787 540.182 245.33 540.591 243.838 540.652C242.346 540.713 240.86 540.423 239.501 539.805L106.954 463.236C106.387 462.942 105.931 462.472 105.652 461.898C105.17 460.692 105.845 459.353 107.604 458.34L185.144 413.525C186.45 412.799 187.907 412.389 189.399 412.328C190.891 412.267 192.376 412.558 193.736 413.175L326.283 489.744C326.819 489.977 327.248 490.401 327.487 490.935C327.725 491.468 327.756 492.072 327.572 492.626Z" fill="#B1B4C4"/>
<path id="Vector_80" d="M327.572 492.626C327.17 493.503 326.482 494.218 325.62 494.652L248.092 539.455C246.787 540.181 245.33 540.591 243.838 540.651C242.346 540.712 240.861 540.422 239.501 539.805L106.954 463.236C106.387 462.941 105.931 462.472 105.652 461.897C106.063 461.028 106.749 460.32 107.604 459.883L185.144 415.08C186.449 414.353 187.905 413.941 189.397 413.879C190.889 413.816 192.375 414.103 193.736 414.718L326.283 491.299C326.846 491.589 327.298 492.055 327.572 492.626Z" fill="#C3C6D1"/>
<path id="Vector_81" d="M523.573 461.765L241.802 298.955C241.182 298.496 240.677 297.898 240.328 297.209C239.978 296.52 239.794 295.76 239.79 294.987V291.671C239.79 290.139 240.718 289.44 241.863 290.103L523.634 452.913C524.265 453.363 524.782 453.956 525.142 454.643C525.502 455.33 525.695 456.093 525.706 456.869V460.185C525.646 461.729 524.718 462.428 523.573 461.765Z" fill="#2B303F"/>
<path id="Vector_82" d="M284.374 282.879L256.539 266.827C253.057 264.813 250.225 259.398 250.225 254.767V224.894C250.225 220.239 253.057 218.104 256.539 220.07L284.374 236.17C287.868 238.184 290.688 243.599 290.688 248.23V278.103C290.64 282.758 287.82 284.893 284.374 282.879Z" fill="#E9EAF2"/>
<path id="Vector_83" d="M284.266 214.462L256.479 198.41C252.997 196.396 250.165 188.159 250.165 184.131V149.253C250.165 144.598 252.997 142.464 256.479 144.429L284.266 160.481C287.76 162.495 290.58 167.91 290.58 172.541V207.419C290.58 211.519 287.76 216.476 284.266 214.462Z" fill="#E9EAF2"/>
<path id="Vector_84" d="M270.529 191.163C264.877 187.894 260.274 179.911 260.274 173.374C260.274 166.838 264.877 164.172 270.529 167.441C276.18 170.709 280.795 178.693 280.795 185.229C280.795 191.766 276.192 194.431 270.529 191.163ZM270.529 170.48C266.323 168.068 262.901 170.034 262.901 174.894C263.039 177.55 263.801 180.136 265.127 182.441C266.452 184.747 268.303 186.706 270.529 188.16C274.746 190.572 278.168 188.618 278.168 183.758C278.031 181.098 277.268 178.509 275.94 176.201C274.612 173.894 272.758 171.933 270.529 170.48Z" fill="#8C50FF"/>
<path id="Vector_85" d="M273.348 186.326L268.697 178.921V172.759L271.324 174.278V179.066L275.084 185.036L273.348 186.326Z" fill="#8C50FF"/>
<path id="Vector_86" d="M284.23 140.691L256.443 124.639C252.961 122.613 250.129 113.544 250.129 109.504V77.3999C250.129 73.3719 252.961 71.7317 256.443 73.7819L284.23 89.8458C286.068 91.0428 287.598 92.6574 288.696 94.5582C289.793 96.459 290.426 98.5922 290.544 100.784V132.9C290.544 136.892 287.724 142.705 284.23 140.691Z" fill="#E9EAF2"/>
<path id="Vector_87" d="M270.336 102.208C268.661 101.243 267.311 102.027 267.311 103.968C267.367 105.019 267.67 106.042 268.196 106.954C268.721 107.866 269.455 108.64 270.336 109.214C272.011 110.179 273.372 109.395 273.372 107.466C273.313 106.413 273.007 105.388 272.479 104.475C271.952 103.562 271.218 102.785 270.336 102.208ZM278.421 103.414L276.011 102.015C275.621 101.748 275.339 101.35 275.216 100.893L274.589 98.3484C274.458 97.8922 274.173 97.4958 273.782 97.2268L266.914 93.2591C266.576 93.0661 266.227 93.1505 266.119 93.4641L265.492 95.2731C265.461 95.3461 265.413 95.411 265.353 95.4627C265.293 95.5145 265.222 95.5517 265.145 95.5715C265.068 95.5913 264.988 95.5932 264.91 95.577C264.832 95.5608 264.759 95.527 264.697 95.4781L262.287 94.0791C261.178 93.4279 260.274 93.9585 260.274 95.2851V105.801C260.313 106.501 260.515 107.183 260.864 107.79C261.214 108.398 261.701 108.914 262.287 109.299L278.457 118.645C279.566 119.285 280.482 118.766 280.482 117.439V106.887C280.438 106.181 280.229 105.495 279.871 104.886C279.513 104.276 279.016 103.759 278.421 103.377V103.414ZM270.336 111.59C268.868 110.629 267.646 109.336 266.769 107.815C265.892 106.294 265.384 104.588 265.287 102.835C265.287 99.6026 267.552 98.3001 270.336 99.9162C271.808 100.874 273.032 102.166 273.909 103.688C274.787 105.21 275.292 106.917 275.385 108.672C275.385 111.856 273.131 113.17 270.336 111.554V111.59ZM277.71 106.971C277.508 106.839 277.339 106.661 277.217 106.452C277.096 106.242 277.025 106.007 277.011 105.765C277.011 105.307 277.325 105.126 277.71 105.355C277.915 105.486 278.087 105.663 278.21 105.873C278.334 106.082 278.406 106.318 278.421 106.561C278.421 106.983 278.108 107.164 277.71 106.935V106.971Z" fill="#8C50FF"/>
<path id="Vector_88" d="M279.108 253.681C279.108 259.12 270.589 266.187 270.589 266.187C270.589 266.187 262.058 249.303 262.058 243.828C262.058 238.353 265.878 236.182 270.589 238.896C273.07 240.517 275.134 242.701 276.614 245.269C278.094 247.838 278.949 250.72 279.108 253.681Z" fill="#8C50FF"/>
<path id="Vector_89" d="M274.529 255.215C276.708 253.956 276.71 249.877 274.534 246.105C272.357 242.332 268.827 240.295 266.649 241.554C264.47 242.813 264.468 246.891 266.644 250.664C268.821 254.436 272.351 256.474 274.529 255.215Z" fill="#E9EAF2"/>
<path id="Vector_90" d="M480.942 326.825L312.715 229.609C309.871 227.981 307.582 223.579 307.582 219.805V106.646C307.582 102.871 309.871 101.134 312.715 102.774L480.942 199.978C483.773 201.618 486.063 206.008 486.063 209.795V322.942C486.063 326.729 483.773 328.465 480.942 326.825Z" fill="#E9EAF2"/>
<path id="Vector_91" d="M461.505 244.564L331.115 169.225C327.958 167.392 325.392 162.496 325.392 158.287V149.76C325.392 145.539 327.958 143.61 331.115 145.431L461.505 220.77C464.662 222.591 467.217 227.487 467.217 231.708V240.234C467.217 244.455 464.662 246.385 461.505 244.564Z" fill="white"/>
<path id="Vector_92" d="M390.593 241.923L331.115 207.552C327.958 205.731 325.392 200.834 325.392 196.613V188.135C325.392 183.914 327.958 181.985 331.115 183.806L390.593 218.177C393.75 219.998 396.304 224.894 396.304 229.115V237.581C396.304 241.802 393.75 243.744 390.593 241.923Z" fill="#8C50FF"/>
<path id="Vector_93" d="M515.56 351.717C515.56 351.717 452.142 365.707 400.871 308.711C349.599 251.716 307.774 259.024 307.774 259.024V294.601L515.56 414.658V351.717Z" fill="url(#paint1_linear)"/>
<path id="Vector_94" d="M515.56 351.717C515.56 351.717 452.142 365.707 400.871 308.711C349.599 251.716 307.774 259.024 307.774 259.024" stroke="#CCCEDD" stroke-width="1.06" stroke-miterlimit="10"/>
</g>
<g id="Men 12">
<path id="&#60;&#208;&#154;&#208;&#190;&#208;&#189;&#209;&#130;&#209;&#131;&#209;&#128;&#62;" d="M307.497 53.5463C305.643 56.8648 303.389 59.943 300.786 62.7119C300.063 63.5561 294.484 61.4215 295.653 60.8185C296.821 60.2155 300.472 55.1262 302.304 51.7253C303.836 47.6651 305.14 43.522 306.208 39.3155C307.353 35.1548 308.341 29.0525 309.184 26.1822C309.4 25.122 309.917 24.1469 310.674 23.3744C311.431 22.6019 312.395 22.0651 313.45 21.8285C315.462 21.3582 316.764 21.913 316.39 24.3491C315.703 28.5942 312.414 45.1646 307.497 53.5463Z" fill="#FFCEA9"/>
<path id="Vector_95" d="M310.691 118.489C308.968 119.9 306.413 118.609 306.281 118.742C304.25 120.625 302.122 122.4 299.906 124.06C298.822 124.904 297.147 126.038 297.496 127.678C298.039 130.585 302.702 129.692 304.461 128.8C306.22 127.907 307.666 126.388 309.281 125.399C310.486 124.651 311.691 124.277 311.823 122.77C311.932 121.865 311.004 118.452 310.691 118.489Z" fill="#38226D"/>
<path id="Vector_96" d="M311.799 122.167C311.57 123.602 310.414 124 309.233 124.736C307.546 125.785 306.052 127.305 304.292 128.197C302.533 129.089 298.617 129.837 297.472 127.751C298.087 130.561 302.678 129.68 304.413 128.8C306.148 127.92 307.618 126.388 309.233 125.399C310.438 124.651 311.643 124.277 311.775 122.77C311.8 122.57 311.808 122.368 311.799 122.167Z" fill="#9C73FF"/>
<path id="Vector_97" d="M293.146 108.37C291.423 109.781 288.398 108.25 288.266 108.37C286.471 110.2 284.568 111.919 282.566 113.52C281.482 114.376 279.807 115.51 280.156 117.138C280.699 120.056 285.362 119.164 287.133 118.271C288.905 117.379 290.326 115.859 291.953 114.858C293.158 114.123 294.363 113.737 294.496 112.241C294.592 111.337 293.459 108.334 293.146 108.37Z" fill="#38226D"/>
<path id="Vector_98" d="M294.436 111.844C294.207 113.279 293.05 113.677 291.869 114.413C290.182 115.462 288.688 116.981 286.929 117.874C285.169 118.766 281.241 119.514 280.108 117.428C280.723 120.238 285.302 119.357 287.049 118.477C288.796 117.596 290.242 116.065 291.869 115.064C293.074 114.328 294.279 113.954 294.411 112.447C294.436 112.247 294.444 112.045 294.436 111.844Z" fill="#9C73FF"/>
<path id="&#60;&#208;&#154;&#208;&#190;&#208;&#189;&#209;&#130;&#209;&#131;&#209;&#128;&#62;_2" d="M333.778 63.0005C335.694 74.9882 330.38 79.4624 323.463 82.0071C318.499 83.8402 311.414 86.6622 311.414 86.6622C311.414 86.6622 311.51 89.2913 311.558 95.1887C311.558 100.387 310.932 119.309 310.932 119.309C310.112 119.731 309.203 119.951 308.281 119.951C307.358 119.951 306.45 119.731 305.63 119.309C305.63 119.309 302.846 104.776 302.256 98.2157C301.448 89.3275 300.087 83.5025 300.545 81.585C300.942 79.8966 310.654 75.1208 313.739 72.5641L293.387 79.3901C293.792 81.5978 293.99 83.8387 293.978 86.0834C293.797 93.1385 293.399 108.418 293.399 108.418C293.399 108.418 290.616 110.433 288.23 108.418C288.23 108.418 283.109 78.1841 283.735 74.1801C284.326 70.3812 302.256 62.6146 305.425 59.9373C305.975 59.4894 306.614 59.1624 307.299 58.9775C307.984 58.7926 308.7 58.7539 309.401 58.8639L333.778 63.0005Z" fill="#8C50FF"/>
<g id="&#60;&#208;&#147;&#209;&#128;&#209;&#131;&#208;&#191;&#208;&#191;&#208;&#176;&#62;">
<g id="&#60;&#208;&#147;&#209;&#128;&#209;&#131;&#208;&#191;&#208;&#191;&#208;&#176;&#62;_2">
<path id="&#60;&#208;&#154;&#208;&#190;&#208;&#189;&#209;&#130;&#209;&#131;&#209;&#128;&#62;_3" d="M285.024 67.9936L298.701 60.0943C298.819 60.023 298.954 59.9854 299.092 59.9854C299.23 59.9854 299.366 60.023 299.484 60.0943L323.463 73.9512L309.401 82.0796L285.024 67.9936Z" fill="#F4F4F4"/>
<path id="Vector_99" d="M310.04 79.1727L311.088 79.7757C311.173 79.7757 311.161 79.9084 311.088 79.9687L310.088 80.5476C310.037 80.5713 309.982 80.5836 309.926 80.5836C309.869 80.5836 309.814 80.5713 309.763 80.5476L308.715 79.9446C308.63 79.9446 308.642 79.8119 308.715 79.7516L309.715 79.1727C309.766 79.149 309.821 79.1367 309.877 79.1367C309.934 79.1367 309.989 79.149 310.04 79.1727Z" fill="#3A2C6D"/>
<path id="Vector_100" d="M308.57 78.389L309.606 78.9799C309.69 78.9799 309.678 79.1247 309.606 79.1729L308.618 79.7518C308.566 79.7783 308.508 79.7921 308.449 79.7921C308.391 79.7921 308.333 79.7783 308.281 79.7518L307.244 79.1488C307.16 79.1488 307.172 79.0161 307.244 78.9558L308.232 78.389C308.284 78.3594 308.342 78.3438 308.401 78.3438C308.46 78.3438 308.519 78.3594 308.57 78.389Z" fill="#3A2C6D"/>
<path id="Vector_101" d="M307.076 77.4607L308.112 78.0637C308.196 78.0637 308.196 78.1963 308.112 78.2566L307.124 78.8234C307.072 78.8499 307.014 78.8637 306.955 78.8637C306.897 78.8637 306.839 78.8499 306.787 78.8234L305.75 78.2204C305.666 78.2204 305.678 78.0878 305.75 78.0275L306.738 77.4486C306.792 77.424 306.85 77.4122 306.908 77.4143C306.967 77.4164 307.024 77.4323 307.076 77.4607Z" fill="#3A2C6D"/>
<path id="Vector_102" d="M305.618 76.6164L306.654 77.2194C306.738 77.2194 306.738 77.3521 306.654 77.4124L305.666 77.9913C305.613 78.0153 305.555 78.0277 305.497 78.0277C305.439 78.0277 305.382 78.0153 305.328 77.9913L304.292 77.3883C304.208 77.3883 304.22 77.2556 304.292 77.1953L305.28 76.6164C305.333 76.5925 305.391 76.5801 305.449 76.5801C305.507 76.5801 305.565 76.5925 305.618 76.6164Z" fill="#3A2C6D"/>
<path id="Vector_103" d="M304.135 75.76L305.184 76.363C305.268 76.363 305.256 76.5078 305.184 76.556L304.183 77.1349C304.133 77.1613 304.077 77.1751 304.021 77.1751C303.964 77.1751 303.908 77.1613 303.858 77.1349L302.81 76.5319C302.725 76.5319 302.738 76.3992 302.81 76.3389L303.81 75.7721C303.859 75.7438 303.914 75.7279 303.971 75.7258C304.028 75.7237 304.084 75.7355 304.135 75.76Z" fill="#3A2C6D"/>
<path id="Vector_104" d="M302.666 74.9162L303.714 75.5192C303.798 75.5192 303.786 75.6518 303.714 75.7121L302.714 76.279C302.664 76.3054 302.608 76.3192 302.551 76.3192C302.494 76.3192 302.439 76.3054 302.388 76.279L301.34 75.676C301.256 75.676 301.268 75.5433 301.34 75.4951L302.34 74.9162C302.39 74.8898 302.446 74.876 302.503 74.876C302.56 74.876 302.615 74.8898 302.666 74.9162Z" fill="#3A2C6D"/>
<path id="Vector_105" d="M301.244 74.0598L302.28 74.6628C302.364 74.6628 302.352 74.7955 302.28 74.8558L301.292 75.4346C301.239 75.4586 301.181 75.471 301.123 75.471C301.065 75.471 301.008 75.4586 300.955 75.4346L299.918 74.8316C299.834 74.8316 299.834 74.699 299.918 74.6387L300.906 74.0598C300.959 74.0358 301.017 74.0234 301.075 74.0234C301.133 74.0234 301.191 74.0358 301.244 74.0598Z" fill="#3A2C6D"/>
<path id="Vector_106" d="M299.713 73.2034L300.762 73.8064C300.846 73.8064 300.834 73.9511 300.762 73.9994L299.762 74.5782C299.711 74.6046 299.656 74.6184 299.599 74.6184C299.542 74.6184 299.486 74.6046 299.436 74.5782L298.388 73.9752C298.304 73.9752 298.316 73.8426 298.388 73.7823L299.388 73.2155C299.437 73.1872 299.493 73.1713 299.549 73.1692C299.606 73.1671 299.662 73.1788 299.713 73.2034Z" fill="#3A2C6D"/>
<path id="Vector_107" d="M298.243 72.3596L299.279 72.9626C299.364 72.9626 299.352 73.0953 299.279 73.1556L298.291 73.7224C298.239 73.7489 298.181 73.7627 298.123 73.7627C298.064 73.7627 298.006 73.7489 297.954 73.7224L296.918 73.1194C296.833 73.1194 296.845 72.9868 296.918 72.9385L297.906 72.3596C297.958 72.3331 298.016 72.3193 298.074 72.3193C298.133 72.3193 298.191 72.3331 298.243 72.3596Z" fill="#3A2C6D"/>
<path id="Vector_108" d="M296.761 71.5031L297.81 72.1061C297.894 72.1061 297.882 72.2388 297.81 72.2991L296.809 72.8779C296.759 72.9017 296.703 72.914 296.647 72.914C296.591 72.914 296.535 72.9017 296.484 72.8779L295.436 72.2749C295.351 72.2749 295.363 72.1423 295.436 72.082L296.436 71.5031C296.486 71.4767 296.542 71.4629 296.599 71.4629C296.655 71.4629 296.711 71.4767 296.761 71.5031Z" fill="#3A2C6D"/>
<path id="Vector_109" d="M295.291 70.6468L296.327 71.2498C296.412 71.2498 296.412 71.3825 296.327 71.4428L295.339 72.0217C295.287 72.0482 295.229 72.062 295.171 72.062C295.112 72.062 295.054 72.0482 295.002 72.0217L293.966 71.4187C293.881 71.4187 293.893 71.286 293.966 71.2257L294.954 70.6589C295.005 70.6305 295.062 70.6146 295.121 70.6125C295.18 70.6104 295.238 70.6222 295.291 70.6468Z" fill="#3A2C6D"/>
<path id="Vector_110" d="M293.821 69.803L294.857 70.406C294.942 70.406 294.93 70.5387 294.857 70.599L293.857 71.1658C293.807 71.1922 293.751 71.206 293.695 71.206C293.638 71.206 293.582 71.1922 293.532 71.1658L292.484 70.5628C292.399 70.5628 292.411 70.4301 292.484 70.3698L293.484 69.803C293.536 69.7765 293.594 69.7627 293.652 69.7627C293.711 69.7627 293.769 69.7765 293.821 69.803Z" fill="#3A2C6D"/>
<path id="Vector_111" d="M292.339 68.9469L293.387 69.5499C293.472 69.5499 293.46 69.6826 293.387 69.7429L292.387 70.3097C292.337 70.3361 292.281 70.3499 292.224 70.3499C292.168 70.3499 292.112 70.3361 292.062 70.3097L291.013 69.7067C290.929 69.7067 290.941 69.562 291.013 69.5137L292.014 68.9348C292.065 68.9103 292.121 68.8985 292.178 68.9006C292.234 68.9027 292.29 68.9186 292.339 68.9469Z" fill="#3A2C6D"/>
<path id="Vector_112" d="M290.158 67.6799L291.905 68.693C291.989 68.693 291.977 68.8256 291.905 68.8859L290.917 69.4648C290.864 69.4888 290.806 69.5012 290.748 69.5012C290.69 69.5012 290.633 69.4888 290.58 69.4648L288.832 68.4518C288.748 68.4518 288.748 68.3191 288.832 68.2588L289.82 67.6799C289.873 67.656 289.931 67.6436 289.989 67.6436C290.047 67.6436 290.105 67.656 290.158 67.6799Z" fill="#3A2C6D"/>
<path id="Vector_113" d="M309.281 77.0871L310.329 77.6901C310.413 77.6901 310.401 77.8227 310.329 77.883L309.329 78.4499C309.28 78.4797 309.224 78.4954 309.166 78.4954C309.109 78.4954 309.053 78.4797 309.004 78.4499L307.955 77.8589C307.871 77.8589 307.883 77.7142 307.955 77.666L308.955 77.0871C309.006 77.0607 309.061 77.0469 309.118 77.0469C309.175 77.0469 309.231 77.0607 309.281 77.0871Z" fill="#3A2C6D"/>
<path id="Vector_114" d="M307.811 76.2307L308.847 76.8337C308.931 76.8337 308.919 76.9664 308.847 77.0267L307.859 77.6056C307.806 77.6295 307.748 77.6419 307.69 77.6419C307.632 77.6419 307.574 77.6295 307.521 77.6056L306.485 77.0026C306.401 77.0026 306.401 76.8699 306.485 76.8096L307.473 76.2307C307.525 76.2042 307.583 76.1904 307.642 76.1904C307.701 76.1904 307.758 76.2042 307.811 76.2307Z" fill="#3A2C6D"/>
<path id="Vector_115" d="M306.329 75.3743L307.365 75.9773C307.461 75.9773 307.449 76.1099 307.365 76.1702L306.377 76.7491C306.324 76.7731 306.266 76.7855 306.208 76.7855C306.15 76.7855 306.092 76.7731 306.039 76.7491L305.003 76.1461C304.919 76.1461 304.931 76.0134 305.003 75.9531L305.991 75.3743C306.044 75.3503 306.102 75.3379 306.16 75.3379C306.218 75.3379 306.276 75.3503 306.329 75.3743Z" fill="#3A2C6D"/>
<path id="Vector_116" d="M304.858 74.5178L305.907 75.1208C305.991 75.1208 305.979 75.2656 305.907 75.3138L304.907 75.8927C304.856 75.9191 304.801 75.9329 304.744 75.9329C304.687 75.9329 304.631 75.9191 304.581 75.8927L303.533 75.2897C303.449 75.2897 303.461 75.157 303.533 75.0967L304.533 74.5299C304.582 74.5016 304.638 74.4857 304.694 74.4836C304.751 74.4815 304.807 74.4933 304.858 74.5178Z" fill="#3A2C6D"/>
<path id="Vector_117" d="M303.388 73.6741L304.424 74.2771C304.509 74.2771 304.497 74.4097 304.424 74.47L303.436 75.0489C303.383 75.0729 303.326 75.0853 303.268 75.0853C303.21 75.0853 303.152 75.0729 303.099 75.0489L302.063 74.4459C301.978 74.4459 301.978 74.3132 302.063 74.2529L303.051 73.6741C303.104 73.6501 303.161 73.6377 303.22 73.6377C303.278 73.6377 303.335 73.6501 303.388 73.6741Z" fill="#3A2C6D"/>
<path id="Vector_118" d="M301.906 72.8177L302.955 73.4207C303.039 73.4207 303.027 73.5654 302.955 73.6136L301.954 74.1925C301.904 74.2189 301.849 74.2327 301.792 74.2327C301.735 74.2327 301.679 74.2189 301.629 74.1925L300.581 73.5895C300.496 73.5895 300.509 73.4568 300.581 73.3965L301.581 72.8297C301.63 72.8014 301.685 72.7855 301.742 72.7834C301.799 72.7813 301.855 72.7931 301.906 72.8177Z" fill="#3A2C6D"/>
<path id="Vector_119" d="M300.424 71.9738L301.473 72.5768C301.557 72.5768 301.545 72.7095 301.473 72.7577L300.473 73.3366C300.422 73.363 300.367 73.3768 300.31 73.3768C300.253 73.3768 300.197 73.363 300.147 73.3366L299.099 72.7336C299.015 72.7336 299.027 72.6009 299.099 72.5406L300.099 71.9738C300.149 71.9474 300.205 71.9336 300.262 71.9336C300.318 71.9336 300.374 71.9474 300.424 71.9738Z" fill="#3A2C6D"/>
<path id="Vector_120" d="M298.954 71.1536L299.99 71.7566C300.075 71.7566 300.063 71.8892 299.99 71.9495L299.002 72.5164C298.95 72.5429 298.892 72.5567 298.834 72.5567C298.775 72.5567 298.717 72.5429 298.665 72.5164L297.629 71.9134C297.544 71.9134 297.556 71.7807 297.629 71.7325L298.617 71.1536C298.669 71.1271 298.727 71.1133 298.785 71.1133C298.844 71.1133 298.902 71.1271 298.954 71.1536Z" fill="#3A2C6D"/>
<path id="Vector_121" d="M297.472 70.2614L298.521 70.8644C298.605 70.8644 298.593 70.997 298.521 71.0573L297.52 71.6241C297.47 71.6505 297.414 71.6643 297.358 71.6643C297.301 71.6643 297.245 71.6505 297.195 71.6241L296.147 71.0211C296.062 71.0211 296.074 70.8764 296.147 70.8282L297.147 70.2493C297.198 70.2247 297.254 70.213 297.311 70.2151C297.368 70.2172 297.423 70.2331 297.472 70.2614Z" fill="#3A2C6D"/>
<path id="Vector_122" d="M296.002 69.4045L297.038 70.0075C297.122 70.0075 297.11 70.1402 297.038 70.2005L296.038 70.7794C295.987 70.8031 295.931 70.8154 295.875 70.8154C295.819 70.8154 295.764 70.8031 295.713 70.7794L294.664 70.1764C294.58 70.1764 294.592 70.0437 294.664 69.9834L295.664 69.4045C295.717 69.3806 295.775 69.3682 295.833 69.3682C295.891 69.3682 295.949 69.3806 296.002 69.4045Z" fill="#3A2C6D"/>
<path id="Vector_123" d="M294.52 68.5481L295.556 69.1511C295.64 69.1511 295.64 69.2838 295.556 69.3441L294.568 69.9229C294.515 69.9494 294.458 69.9632 294.399 69.9632C294.34 69.9632 294.283 69.9494 294.23 69.9229L293.194 69.3199C293.11 69.3199 293.122 69.1873 293.194 69.127L294.182 68.5481C294.235 68.5241 294.293 68.5117 294.351 68.5117C294.409 68.5117 294.467 68.5241 294.52 68.5481Z" fill="#3A2C6D"/>
<path id="Vector_124" d="M293.038 67.7038L294.086 68.2947C294.17 68.2947 294.158 68.4394 294.086 68.4877L293.086 69.0666C293.036 69.093 292.98 69.1068 292.923 69.1068C292.866 69.1068 292.811 69.093 292.76 69.0666L291.712 68.4636C291.628 68.4636 291.64 68.3309 291.712 68.2706L292.712 67.7038C292.761 67.674 292.818 67.6582 292.875 67.6582C292.932 67.6582 292.989 67.674 293.038 67.7038Z" fill="#3A2C6D"/>
<path id="Vector_125" d="M310.763 77.9426L312.51 78.9557C312.594 78.9557 312.594 79.0883 312.51 79.1486L311.522 79.7155C311.47 79.7419 311.412 79.7558 311.353 79.7558C311.295 79.7558 311.237 79.7419 311.184 79.7155L309.437 78.7024C309.353 78.7024 309.365 78.5698 309.437 78.5095L310.425 77.9426C310.478 77.9161 310.535 77.9023 310.594 77.9023C310.653 77.9023 310.71 77.9161 310.763 77.9426Z" fill="#3A2C6D"/>
<path id="Vector_126" d="M290.23 67.6315L291.267 68.2345C291.315 68.258 291.369 68.2702 291.423 68.2702C291.477 68.2702 291.531 68.258 291.58 68.2345L292.628 67.6195C292.647 67.6126 292.662 67.6003 292.674 67.5841C292.685 67.5679 292.691 67.5487 292.691 67.529C292.691 67.5093 292.685 67.4901 292.674 67.4739C292.662 67.4577 292.647 67.4454 292.628 67.4386H292.544C292.471 67.4386 292.471 67.33 292.544 67.2818L293.652 66.6426C293.749 66.6426 293.749 66.5099 293.652 66.4617L292.99 66.0758C292.941 66.0523 292.887 66.04 292.833 66.04C292.779 66.04 292.725 66.0523 292.676 66.0758L291.64 66.6788L291.423 66.7994L291.267 66.8959L291.11 66.9803L290.218 67.4989C290.203 67.5183 290.195 67.5429 290.198 67.5676C290.2 67.5923 290.212 67.6152 290.23 67.6315Z" fill="#3A2C6D"/>
<path id="Vector_127" d="M315.703 75.8683L316.752 76.4713C316.836 76.4713 316.824 76.604 316.752 76.6643L315.751 77.2311C315.702 77.2609 315.646 77.2767 315.589 77.2767C315.531 77.2767 315.475 77.2609 315.426 77.2311L314.378 76.6402C314.293 76.5799 314.305 76.4955 314.378 76.4472L315.378 75.8683C315.428 75.8419 315.484 75.8281 315.54 75.8281C315.597 75.8281 315.653 75.8419 315.703 75.8683Z" fill="#3A2C6D"/>
<path id="Vector_128" d="M314.281 75.012L315.33 75.615C315.414 75.615 315.402 75.7597 315.33 75.808L314.329 76.3868C314.279 76.4132 314.223 76.427 314.167 76.427C314.11 76.427 314.054 76.4132 314.004 76.3868L312.956 75.7838C312.871 75.7838 312.884 75.6512 312.956 75.5909L313.956 75.024C314.005 74.9958 314.06 74.9799 314.117 74.9778C314.174 74.9757 314.23 74.9874 314.281 75.012Z" fill="#3A2C6D"/>
<path id="Vector_129" d="M312.812 74.1686L313.86 74.7716C313.944 74.7716 313.932 74.9042 313.86 74.9645L312.86 75.5314C312.81 75.5578 312.754 75.5716 312.697 75.5716C312.64 75.5716 312.585 75.5578 312.534 75.5314L311.486 74.9284C311.402 74.9284 311.414 74.7836 311.486 74.7354L312.486 74.1565C312.537 74.132 312.594 74.1202 312.65 74.1223C312.707 74.1244 312.762 74.1403 312.812 74.1686Z" fill="#3A2C6D"/>
<path id="Vector_130" d="M300.292 66.9319L301.328 67.5349C301.412 67.5349 301.4 67.6676 301.328 67.7279L300.34 68.2947C300.288 68.3212 300.23 68.335 300.171 68.335C300.113 68.335 300.055 68.3212 300.003 68.2947L298.966 67.6917C298.87 67.6917 298.882 67.559 298.966 67.4987L299.954 66.9319C300.007 66.9054 300.064 66.8916 300.123 66.8916C300.182 66.8916 300.239 66.9054 300.292 66.9319Z" fill="#3A2C6D"/>
<path id="Vector_131" d="M298.834 66.0761L299.882 66.6791C299.966 66.6791 299.954 66.8117 299.882 66.872L298.882 67.4509C298.831 67.4746 298.775 67.4869 298.719 67.4869C298.663 67.4869 298.607 67.4746 298.556 67.4509L297.508 66.8479C297.424 66.8479 297.436 66.7152 297.508 66.6549L298.508 66.0761C298.559 66.0523 298.615 66.04 298.671 66.04C298.727 66.04 298.783 66.0523 298.834 66.0761Z" fill="#3A2C6D"/>
<path id="Vector_132" d="M297.339 65.2316L298.388 65.8346C298.472 65.8346 298.46 65.9673 298.388 66.0276L297.388 66.5944C297.337 66.6208 297.282 66.6346 297.225 66.6346C297.168 66.6346 297.112 66.6208 297.062 66.5944L296.014 65.9914C295.93 65.9914 295.942 65.8587 296.014 65.8105L297.014 65.2316C297.064 65.2052 297.12 65.1914 297.177 65.1914C297.233 65.1914 297.289 65.2052 297.339 65.2316Z" fill="#3A2C6D"/>
<path id="Vector_133" d="M295.869 64.3759L296.917 64.9789C297.002 64.9789 296.99 65.1115 296.917 65.1718L295.917 65.7507C295.866 65.7744 295.811 65.7867 295.755 65.7867C295.698 65.7867 295.643 65.7744 295.592 65.7507L294.544 65.1477C294.459 65.1477 294.471 65.015 294.544 64.9547L295.544 64.3759C295.595 64.3521 295.65 64.3398 295.706 64.3398C295.763 64.3398 295.818 64.3521 295.869 64.3759Z" fill="#3A2C6D"/>
<path id="Vector_134" d="M310.968 73.0953L312.39 73.9154C312.474 73.9154 312.462 74.0601 312.39 74.1083L311.39 74.6872C311.339 74.7136 311.284 74.7274 311.227 74.7274C311.17 74.7274 311.114 74.7136 311.064 74.6872L309.678 73.8792C309.594 73.8792 309.594 73.7465 309.678 73.6862L310.667 73.1074C310.762 73.0652 310.87 73.0609 310.968 73.0953Z" fill="#3A2C6D"/>
<path id="Vector_135" d="M301.762 67.7766L303.184 68.5967C303.268 68.5967 303.256 68.7294 303.184 68.7897L302.184 69.3685C302.133 69.3923 302.077 69.4046 302.021 69.4046C301.965 69.4046 301.909 69.3923 301.858 69.3685L300.436 68.5485C300.352 68.5485 300.352 68.4158 300.436 68.3555L301.424 67.7766C301.477 67.7526 301.535 67.7402 301.593 67.7402C301.651 67.7402 301.709 67.7526 301.762 67.7766Z" fill="#3A2C6D"/>
<path id="Vector_136" d="M303.653 68.8498L310.582 72.8537C310.666 72.8537 310.654 72.9864 310.582 73.0467L309.594 73.6135C309.542 73.64 309.484 73.6538 309.425 73.6538C309.367 73.6538 309.309 73.64 309.256 73.6135L302.328 69.6096C302.244 69.6096 302.256 69.4769 302.328 69.4287L303.328 68.8498C303.378 68.8234 303.434 68.8096 303.491 68.8096C303.547 68.8096 303.603 68.8234 303.653 68.8498Z" fill="#3A2C6D"/>
<path id="Vector_137" d="M310.317 75.9768L311.353 76.5798C311.438 76.5798 311.426 76.7125 311.353 76.7728L310.365 77.3516C310.312 77.3756 310.255 77.388 310.196 77.388C310.138 77.388 310.081 77.3756 310.028 77.3516L308.991 76.7486C308.907 76.7486 308.907 76.616 308.991 76.5557L309.98 75.9768C310.033 75.9528 310.09 75.9404 310.148 75.9404C310.206 75.9404 310.264 75.9528 310.317 75.9768Z" fill="#3A2C6D"/>
<path id="Vector_138" d="M308.835 75.1692L309.883 75.7722C309.968 75.7722 309.956 75.9169 309.883 75.9652L308.883 76.5441C308.833 76.5705 308.777 76.5843 308.721 76.5843C308.664 76.5843 308.608 76.5705 308.558 76.5441L307.51 75.9411C307.425 75.9411 307.437 75.8084 307.51 75.7481L308.51 75.1813C308.559 75.153 308.614 75.1371 308.671 75.135C308.728 75.1329 308.784 75.1446 308.835 75.1692Z" fill="#3A2C6D"/>
<path id="Vector_139" d="M307.365 74.3248L308.413 74.9278C308.497 74.9278 308.485 75.0605 308.413 75.1208L307.413 75.6876C307.361 75.7141 307.303 75.7279 307.244 75.7279C307.186 75.7279 307.128 75.7141 307.076 75.6876L306.039 75.0846C305.955 75.0243 305.967 74.9399 306.039 74.8916L307.039 74.3128C307.091 74.2882 307.147 74.2765 307.204 74.2786C307.26 74.2807 307.316 74.2965 307.365 74.3248Z" fill="#3A2C6D"/>
<path id="Vector_140" d="M305.895 73.469L306.931 74.072C307.015 74.072 307.003 74.2047 306.931 74.265L305.943 74.8438C305.89 74.8678 305.832 74.8802 305.774 74.8802C305.716 74.8802 305.658 74.8678 305.605 74.8438L304.569 74.2408C304.485 74.2408 304.497 74.1082 304.569 74.0479L305.557 73.469C305.61 73.445 305.668 73.4326 305.726 73.4326C305.784 73.4326 305.842 73.445 305.895 73.469Z" fill="#3A2C6D"/>
<path id="Vector_141" d="M304.413 72.6242L305.461 73.2272C305.545 73.2272 305.533 73.3599 305.461 73.4202L304.461 73.987C304.411 74.0134 304.355 74.0272 304.298 74.0272C304.241 74.0272 304.186 74.0134 304.135 73.987L303.087 73.384C303.003 73.384 303.015 73.2513 303.087 73.191L304.087 72.6242C304.137 72.5978 304.193 72.584 304.25 72.584C304.307 72.584 304.362 72.5978 304.413 72.6242Z" fill="#3A2C6D"/>
<path id="Vector_142" d="M302.942 71.7684L303.991 72.3714C304.075 72.3714 304.063 72.5041 303.991 72.5644L302.991 73.1433C302.94 73.167 302.884 73.1793 302.828 73.1793C302.772 73.1793 302.716 73.167 302.665 73.1433L301.617 72.5403C301.533 72.5403 301.545 72.4076 301.617 72.3473L302.617 71.7684C302.668 71.7447 302.724 71.7324 302.78 71.7324C302.836 71.7324 302.891 71.7447 302.942 71.7684Z" fill="#3A2C6D"/>
<path id="Vector_143" d="M301.473 70.9115L302.509 71.5145C302.593 71.5145 302.593 71.6592 302.509 71.7075L301.521 72.2863C301.469 72.3128 301.411 72.3266 301.352 72.3266C301.294 72.3266 301.236 72.3128 301.183 72.2863L300.147 71.6833C300.063 71.6833 300.075 71.5507 300.147 71.4904L301.135 70.9236C301.187 70.8952 301.244 70.8793 301.303 70.8772C301.361 70.8751 301.419 70.8868 301.473 70.9115Z" fill="#3A2C6D"/>
<path id="Vector_144" d="M300.039 70.0676L301.075 70.6706C301.159 70.6706 301.147 70.8033 301.075 70.8636L300.087 71.4304C300.036 71.4601 299.977 71.4757 299.918 71.4757C299.859 71.4757 299.801 71.4601 299.749 71.4304L298.713 70.8395C298.629 70.8395 298.629 70.6948 298.713 70.6465L299.701 70.0676C299.754 70.0411 299.811 70.0273 299.87 70.0273C299.929 70.0273 299.986 70.0411 300.039 70.0676Z" fill="#3A2C6D"/>
<path id="Vector_145" d="M298.52 69.2118L299.568 69.8148C299.653 69.8148 299.641 69.9475 299.568 70.0078L298.568 70.5866C298.517 70.6104 298.462 70.6227 298.406 70.6227C298.349 70.6227 298.294 70.6104 298.243 70.5866L297.195 69.9836C297.11 69.9836 297.122 69.851 297.195 69.7907L298.195 69.2118C298.246 69.1881 298.301 69.1758 298.357 69.1758C298.414 69.1758 298.469 69.1881 298.52 69.2118Z" fill="#3A2C6D"/>
<path id="Vector_146" d="M297.05 68.3676L298.086 68.9706C298.183 68.9706 298.171 69.1033 298.086 69.1515L297.086 69.7304C297.034 69.7569 296.976 69.7707 296.918 69.7707C296.859 69.7707 296.801 69.7569 296.749 69.7304L295.713 69.1274C295.628 69.1274 295.64 68.9948 295.713 68.9345L296.701 68.3676C296.755 68.3391 296.815 68.3242 296.875 68.3242C296.936 68.3242 296.996 68.3391 297.05 68.3676Z" fill="#3A2C6D"/>
<path id="Vector_147" d="M295.58 67.535L296.616 68.138C296.701 68.138 296.689 68.2706 296.616 68.3309L295.628 68.9098C295.575 68.9338 295.518 68.9462 295.46 68.9462C295.401 68.9462 295.344 68.9338 295.291 68.9098L294.255 68.3068C294.17 68.3068 294.182 68.1741 294.255 68.1138L295.219 67.535C295.274 67.5043 295.336 67.4883 295.399 67.4883C295.463 67.4883 295.525 67.5043 295.58 67.535Z" fill="#3A2C6D"/>
<path id="Vector_148" d="M294.098 66.6546L295.147 67.2576C295.231 67.2576 295.219 67.4023 295.147 67.4505L294.146 68.0294C294.096 68.0558 294.04 68.0696 293.984 68.0696C293.927 68.0696 293.871 68.0558 293.821 68.0294L292.773 67.4264C292.688 67.4264 292.7 67.2937 292.773 67.2334L293.773 66.6666C293.822 66.6383 293.877 66.6225 293.934 66.6204C293.991 66.6183 294.047 66.63 294.098 66.6546Z" fill="#3A2C6D"/>
<path id="Vector_149" d="M311.787 76.8822L313.944 78.0882C314.028 78.0882 314.016 78.2209 313.944 78.2812L312.944 78.86C312.893 78.8838 312.837 78.896 312.781 78.896C312.725 78.896 312.67 78.8838 312.619 78.86L310.462 77.654C310.377 77.654 310.389 77.5214 310.462 77.4611L311.45 76.8942C311.501 76.8659 311.558 76.85 311.617 76.8479C311.676 76.8458 311.734 76.8575 311.787 76.8822Z" fill="#3A2C6D"/>
<path id="Vector_150" d="M312.474 75.6272L313.51 76.2302C313.607 76.2302 313.595 76.3629 313.51 76.4111L312.522 76.99C312.47 77.0165 312.412 77.0303 312.354 77.0303C312.295 77.0303 312.237 77.0165 312.185 76.99L311.149 76.387C311.064 76.387 311.076 76.2543 311.149 76.194L312.137 75.6272C312.189 75.6007 312.247 75.5869 312.305 75.5869C312.364 75.5869 312.422 75.6007 312.474 75.6272Z" fill="#3A2C6D"/>
<path id="Vector_151" d="M311.004 74.7708L312.04 75.3738C312.125 75.3738 312.113 75.5064 312.04 75.5667L311.052 76.1456C310.999 76.1696 310.942 76.182 310.883 76.182C310.825 76.182 310.768 76.1696 310.715 76.1456L309.678 75.5426C309.594 75.5426 309.606 75.4099 309.678 75.3496L310.667 74.7708C310.719 74.7443 310.777 74.7305 310.835 74.7305C310.894 74.7305 310.952 74.7443 311.004 74.7708Z" fill="#3A2C6D"/>
<path id="Vector_152" d="M309.522 73.9153L310.57 74.5183C310.655 74.5183 310.643 74.663 310.57 74.7113L309.57 75.2901C309.52 75.3166 309.464 75.3304 309.408 75.3304C309.351 75.3304 309.295 75.3166 309.245 75.2901L308.197 74.6871C308.112 74.6871 308.124 74.5545 308.197 74.4942L309.197 73.9274C309.246 73.8991 309.301 73.8832 309.358 73.8811C309.415 73.879 309.471 73.8907 309.522 73.9153Z" fill="#3A2C6D"/>
<path id="Vector_153" d="M308.052 73.0705L309.1 73.6735C309.184 73.6735 309.172 73.8061 309.1 73.8664L308.1 74.4333C308.051 74.4631 307.995 74.4788 307.937 74.4788C307.88 74.4788 307.824 74.4631 307.775 74.4333L306.726 73.8423C306.642 73.782 306.654 73.6976 306.726 73.6494L307.726 73.0705C307.777 73.0441 307.832 73.0303 307.889 73.0303C307.946 73.0303 308.002 73.0441 308.052 73.0705Z" fill="#3A2C6D"/>
<path id="Vector_154" d="M306.582 72.2151L307.618 72.8181C307.702 72.8181 307.702 72.9507 307.618 73.011L306.63 73.5899C306.577 73.6139 306.519 73.6263 306.461 73.6263C306.403 73.6263 306.345 73.6139 306.292 73.5899L305.256 72.9869C305.172 72.9869 305.184 72.8543 305.256 72.794L306.244 72.2151C306.297 72.1911 306.355 72.1787 306.413 72.1787C306.471 72.1787 306.529 72.1911 306.582 72.2151Z" fill="#3A2C6D"/>
<path id="Vector_155" d="M305.111 71.3704L306.148 71.9734C306.232 71.9734 306.22 72.106 306.148 72.1543L305.16 72.7331C305.107 72.7596 305.05 72.7734 304.991 72.7734C304.932 72.7734 304.874 72.7596 304.822 72.7331L303.786 72.1302C303.702 72.1302 303.702 71.9975 303.786 71.9372L304.774 71.3704C304.826 71.3439 304.884 71.3301 304.943 71.3301C305.001 71.3301 305.059 71.3439 305.111 71.3704Z" fill="#3A2C6D"/>
<path id="Vector_156" d="M303.653 70.5145L304.702 71.1175C304.786 71.1175 304.774 71.2502 304.702 71.3105L303.702 71.8894C303.651 71.9131 303.595 71.9254 303.539 71.9254C303.483 71.9254 303.427 71.9131 303.376 71.8894L302.328 71.2864C302.244 71.2864 302.256 71.1537 302.328 71.0934L303.328 70.5145C303.379 70.4908 303.434 70.4785 303.491 70.4785C303.547 70.4785 303.602 70.4908 303.653 70.5145Z" fill="#3A2C6D"/>
<path id="Vector_157" d="M302.159 69.6575L303.208 70.2605C303.292 70.2605 303.28 70.4052 303.208 70.4535L302.207 71.0323C302.157 71.0587 302.101 71.0725 302.045 71.0725C301.988 71.0725 301.932 71.0587 301.882 71.0323L300.834 70.4293C300.749 70.4293 300.761 70.2967 300.834 70.2364L301.834 69.6696C301.883 69.6413 301.938 69.6254 301.995 69.6233C302.052 69.6212 302.108 69.6329 302.159 69.6575Z" fill="#3A2C6D"/>
<path id="Vector_158" d="M300.689 68.8132L301.726 69.4162C301.81 69.4162 301.798 69.5489 301.726 69.6092L300.738 70.176C300.685 70.2025 300.628 70.2163 300.569 70.2163C300.51 70.2163 300.453 70.2025 300.4 70.176L299.364 69.573C299.28 69.573 299.292 69.4283 299.364 69.38L300.352 68.8011C300.405 68.7765 300.464 68.7647 300.522 68.7668C300.581 68.7689 300.638 68.7848 300.689 68.8132Z" fill="#3A2C6D"/>
<path id="Vector_159" d="M299.219 67.9573L300.255 68.5603C300.34 68.5603 300.328 68.6929 300.255 68.7532L299.267 69.3321C299.214 69.3561 299.157 69.3685 299.099 69.3685C299.04 69.3685 298.983 69.3561 298.93 69.3321L297.894 68.7291C297.797 68.7291 297.809 68.5965 297.894 68.5362L298.882 67.9573C298.935 67.9333 298.992 67.9209 299.05 67.9209C299.108 67.9209 299.166 67.9333 299.219 67.9573Z" fill="#3A2C6D"/>
<path id="Vector_160" d="M297.737 67.1135L298.785 67.7164C298.87 67.7164 298.857 67.8491 298.785 67.9094L297.785 68.4762C297.735 68.5026 297.679 68.5164 297.622 68.5164C297.566 68.5164 297.51 68.5026 297.46 68.4762L296.411 67.8732C296.327 67.8732 296.339 67.7406 296.411 67.6923L297.411 67.1135C297.462 67.087 297.517 67.0732 297.574 67.0732C297.631 67.0732 297.687 67.087 297.737 67.1135Z" fill="#3A2C6D"/>
<path id="Vector_161" d="M294.447 65.2073L297.315 66.8595C297.4 66.8595 297.387 66.9922 297.315 67.0525L296.315 67.6314C296.262 67.6553 296.205 67.6677 296.146 67.6677C296.088 67.6677 296.031 67.6553 295.978 67.6314L293.122 65.9671C293.038 65.9671 293.038 65.8344 293.122 65.7862L294.11 65.2073C294.162 65.1808 294.22 65.167 294.279 65.167C294.337 65.167 294.395 65.1808 294.447 65.2073Z" fill="#3A2C6D"/>
<path id="Vector_162" d="M313.944 76.4716L315.366 77.2916C315.45 77.2916 315.438 77.4364 315.366 77.4846L314.378 78.0635C314.325 78.09 314.268 78.1038 314.209 78.1038C314.15 78.1038 314.093 78.09 314.04 78.0635L312.618 77.2434C312.534 77.2434 312.546 77.1107 312.618 77.0504L313.619 76.4716C313.669 76.4478 313.725 76.4355 313.781 76.4355C313.837 76.4355 313.893 76.4478 313.944 76.4716Z" fill="#3A2C6D"/>
<path id="Vector_163" d="M288.675 68.5359L309.594 80.5959C309.678 80.5959 309.678 80.7285 309.594 80.7888L309.1 81.0662C309.05 81.0926 308.994 81.1064 308.937 81.1064C308.88 81.1064 308.825 81.0926 308.774 81.0662L287.844 69.0062C287.76 69.0062 287.772 68.8735 287.844 68.8132L288.338 68.5238C288.392 68.5017 288.45 68.4913 288.508 68.4934C288.566 68.4955 288.623 68.51 288.675 68.5359Z" fill="#3A2C6D"/>
<path id="&#60;&#208;&#154;&#208;&#190;&#208;&#189;&#209;&#130;&#209;&#131;&#209;&#128;&#62;_4" d="M313.161 69.0788L313.016 69.1512L309.401 71.2496L302.979 67.5352L302.846 67.4507L306.594 65.292L313.161 69.0788Z" fill="#BFBFBF"/>
<path id="&#60;&#208;&#154;&#208;&#190;&#208;&#189;&#209;&#130;&#209;&#131;&#209;&#128;&#62;_5" d="M313.016 69.1516L309.401 71.2501L302.979 67.5356L306.593 65.4492L313.016 69.1516Z" fill="#E5E5E5"/>
<path id="&#60;&#208;&#154;&#208;&#190;&#208;&#189;&#209;&#130;&#209;&#131;&#209;&#128;&#62;_6" d="M323.463 73.9511V74.2768C323.465 74.5082 323.406 74.7359 323.292 74.9371C323.178 75.1383 323.012 75.3057 322.813 75.4225L310.064 82.7791C309.865 82.8968 309.638 82.959 309.407 82.959C309.176 82.959 308.949 82.8968 308.751 82.7791L285.687 69.5131C285.477 69.3919 285.304 69.2155 285.188 69.0028C285.071 68.7902 285.014 68.5495 285.025 68.3071V67.9814L309.401 82.0675L323.463 73.9511Z" fill="#E5E5E5"/>
<path id="&#60;&#208;&#154;&#208;&#190;&#208;&#189;&#209;&#130;&#209;&#131;&#209;&#128;&#62;_7" d="M309.04 82.2726C308.822 82.3585 308.588 82.3944 308.354 82.3777C308.12 82.361 307.894 82.2921 307.69 82.1761L284.796 68.9101C284.596 68.795 284.424 68.6369 284.293 68.447C284.161 68.2572 284.074 68.0405 284.037 67.8127L281.518 52.81C281.512 52.7257 281.512 52.6411 281.518 52.5568C281.517 52.3497 281.559 52.1445 281.639 51.9538C281.72 51.7631 281.839 51.5908 281.988 51.4473L305.847 65.2318C305.99 65.3202 306.114 65.4378 306.209 65.577C306.305 65.7161 306.37 65.8738 306.401 66.0399L309.04 82.2726Z" fill="#F4F4F4"/>
<path id="&#60;&#208;&#154;&#208;&#190;&#208;&#189;&#209;&#130;&#209;&#131;&#209;&#128;&#62;_8" d="M309.401 82.0796L309.245 82.1761L309.04 82.2726L306.316 66.0399C306.286 65.8738 306.22 65.7161 306.125 65.5769C306.029 65.4378 305.906 65.3202 305.762 65.2318L281.964 51.4473C282.052 51.3475 282.158 51.2656 282.277 51.2061L306.184 65.0148C306.33 65.1018 306.456 65.2189 306.553 65.3581C306.651 65.4974 306.718 65.6557 306.75 65.8228L309.401 82.0796Z" fill="#E5E5E5"/>
</g>
</g>
<path id="&#60;&#208;&#154;&#208;&#190;&#208;&#189;&#209;&#130;&#209;&#131;&#209;&#128;&#62;_9" d="M326.741 17.8838C326.741 17.8838 326.439 23.5882 326.572 24.0947C326.705 24.6012 329.187 26.2776 329.91 26.8806C330.633 27.4836 325.97 32.0905 323.704 33.1276C321.439 34.1648 314.233 31.4272 314.064 27.8815C313.896 24.3359 315.269 21.3812 316.402 21.2244C317.535 21.0676 326.741 17.8838 326.741 17.8838Z" fill="#FFCEA9"/>
<path id="&#60;&#208;&#154;&#208;&#190;&#208;&#189;&#209;&#130;&#209;&#131;&#209;&#128;&#62;_10" d="M327.367 25.0846C327.367 25.0846 323.234 31.2593 317.462 31.8382C315.643 30.0413 315.474 23.6495 317.993 21.6113C317.993 21.6113 315.679 19.73 314.089 20.1038C312.366 21.1227 311.079 22.7415 310.474 24.6505C308.996 28.912 308.306 33.4074 308.437 37.9165C308.534 43.9465 308.437 59.2747 308.437 59.2747C308.776 61.0832 309.493 62.7994 310.542 64.3105C311.591 65.8216 312.947 67.0934 314.522 68.0423C318.694 70.4109 323.613 71.0926 328.271 69.9478C331.199 69.2604 332.284 67.6323 333.296 65.4977C333.031 61.2646 331.356 52.5211 332.091 47.1785C332.826 41.836 333.922 37.8562 334.212 33.5507C334.501 29.2453 333.645 29.3177 331.476 27.774C330.173 26.7792 328.8 25.8804 327.367 25.0846Z" fill="#F4F4F4"/>
<path id="&#60;&#208;&#154;&#208;&#190;&#208;&#189;&#209;&#130;&#209;&#131;&#209;&#128;&#62;_11" d="M320.74 74.2772C321.778 73.5859 322.861 72.9654 323.982 72.4199C325.027 72.0863 325.977 71.5074 326.753 70.7315C327.765 69.7426 329.428 65.9799 330.621 62.2895C331.808 58.1511 332.277 53.8393 332.007 49.5421C331.513 44.3925 329.657 37.1927 329.187 34.238C328.717 31.2833 329.669 30.0893 331.055 29.0039C332.67 27.7256 334.899 28.2924 336.092 32.441C337.628 38.1808 338.517 44.0747 338.743 50.0125C338.792 54.4234 338.112 58.8122 336.73 63.0011C335.502 66.5895 333.843 70.0154 331.79 73.2038C331.224 74.1566 331.031 75.0128 330.163 76.9666C329.33 78.9297 328.031 80.66 326.38 82.0076C324.934 83.0448 324.247 83.2136 323.897 82.9966C323.548 82.7795 323.56 82.285 324.174 81.7906C325.2 80.9834 326.074 79.9991 326.753 78.8841C326.753 78.8841 325.488 80.1625 324.656 80.8619C323.925 81.4808 323.114 81.9999 322.246 82.4056C321.403 82.7795 320.222 82.0559 320.825 81.4891C321.427 80.9222 322.03 80.6328 323.235 79.5836C323.883 79.0332 324.462 78.4054 324.958 77.7143C324.11 78.3677 323.211 78.9525 322.271 79.463C321.544 79.9029 320.71 80.1325 319.861 80.1263C319.415 80.1263 318.873 79.475 319.716 78.9203C320.876 78.2917 321.956 77.5265 322.933 76.6409C323.861 75.7244 324.379 74.9405 324.138 74.9284C323.897 74.9164 323.367 75.4832 322.283 75.8329C321.198 76.1827 320.029 75.8329 319.873 75.2661C319.716 74.6993 319.728 74.7716 320.74 74.2772Z" fill="#FFCEA9"/>
<path id="&#60;&#208;&#154;&#208;&#190;&#208;&#189;&#209;&#130;&#209;&#131;&#209;&#128;&#62;_12" d="M313.823 9.36995C314.51 4.94393 317.703 1.59125 322.258 1.84451C324.095 1.93803 325.857 2.60718 327.293 3.75735C328.729 4.90752 329.768 6.48049 330.262 8.25384C330.756 10.0272 330.681 11.9112 330.047 13.6394C329.413 15.3676 328.252 16.8526 326.729 17.8843C326.567 18.5568 326.329 19.2083 326.018 19.826C324.415 21.7073 319.535 22.9133 318.113 22.6721C317.281 22.5965 316.492 22.2719 315.847 21.7406C315.202 21.2092 314.732 20.4958 314.498 19.6933C312.98 16.22 313.45 11.5649 313.823 9.36995Z" fill="#FFCEA9"/>
<path id="Vector_164" d="M326.741 17.8844L326.319 14.0131C326.319 14.0131 329.476 5.83644 322.017 7.40424C317.101 8.4414 315.86 8.89968 314.366 5.59524C312.872 2.2908 318.113 -0.68802 324.415 0.14412C326.575 0.36763 328.572 1.39576 330.009 3.02442C331.447 4.65307 332.22 6.76318 332.175 8.93586C332.019 11.372 331.368 16.2925 326.741 17.8844Z" fill="#3A2C6D"/>
<path id="Vector_165" d="M339.501 40.0743C339.501 40.0743 335.429 44.1265 330.621 42.9567C329.934 42.4863 328.271 33.0192 328.271 33.0192C328.271 33.0192 328.271 27.7731 332.296 27.9058C336.32 28.0385 339.501 40.0743 339.501 40.0743Z" fill="#EDEDED"/>
<path id="Vector_166" d="M308.775 32.2118C307.636 32.1707 306.556 31.6912 305.762 30.8731C305.931 28.7505 308.642 20.6945 314.089 20.1035C312.607 21.1435 311.433 22.5643 310.691 24.216C309.843 26.8267 309.202 29.5002 308.775 32.2118Z" fill="#EDEDED"/>
</g>
<path id="Vector_167" d="M553.565 375.246L452.926 317.093C446.6 313.475 441.479 303.646 441.479 295.216V136.735C441.479 128.293 446.6 124.434 452.926 128.076L553.565 186.242C559.879 189.86 565 199.689 565 208.119V366.623C565 375.065 559.879 378.9 553.565 375.246Z" fill="#211B49"/>
<path id="Vector_168" d="M557.589 377.562L561.036 375.862L558.71 371.291L557.589 377.562Z" fill="#211B49"/>
<path id="Vector_169" d="M443.358 128.523C444.371 127.92 445.436 127.408 446.539 126.991L449.094 132.044L443.358 128.523Z" fill="#211B49"/>
<path id="Vector_170" d="M550.926 376.573L450.275 318.384C443.96 314.766 438.839 304.937 438.839 296.507V138.063C438.839 129.621 443.96 125.75 450.275 129.404L550.926 187.569C557.24 191.187 562.361 201.004 562.361 209.434V367.914C562.361 376.344 557.24 380.228 550.926 376.573Z" fill="#2E245B"/>
<path id="Vector_171" d="M468.578 162.447L450.274 151.871V145.262L468.578 155.838V162.447Z" fill="#A298E2"/>
<path id="Vector_172" d="M549.781 209.373L472.012 164.425V157.828L549.781 202.764V209.373Z" fill="#C33AFC"/>
<path id="Vector_173" d="M468.578 183.601L450.274 173.024V166.415L468.578 176.992V183.601Z" fill="#A298E2"/>
<path id="Vector_174" d="M523.477 215.319L472.012 185.579V178.97L523.477 208.71V215.319Z" fill="#F4CE2C"/>
<path id="Vector_175" d="M468.578 194.166L450.274 183.601V176.992L468.578 187.557V194.166Z" fill="#A298E2"/>
<path id="Vector_176" d="M536.057 233.168L472.012 196.156V189.547L536.057 226.559V233.168Z" fill="#FF8657"/>
<path id="Vector_177" d="M468.578 204.742L450.274 194.166V187.557L468.578 198.133V204.742Z" fill="#A298E2"/>
<path id="Vector_178" d="M516.62 232.504L472.012 206.732V200.123L516.62 225.895V232.504Z" fill="#A298E2"/>
<path id="Vector_179" d="M468.578 173.024L450.274 162.448V155.839L468.578 166.415V173.024Z" fill="#A298E2"/>
<path id="Vector_180" d="M510.897 197.482L472.012 175.002V168.394L510.897 190.861V197.482Z" fill="#4D3BFF"/>
<path id="Vector_181" d="M468.578 215.318L450.274 204.742V198.133L468.578 208.709V215.318Z" fill="#A298E2"/>
<path id="Vector_182" d="M494.883 230.514L472.012 217.296V210.688L494.883 223.905V230.514Z" fill="#C33AFC"/>
<path id="Vector_183" d="M468.578 236.46L450.274 225.895V219.286L468.578 229.863V236.46Z" fill="#A298E2"/>
<path id="Vector_184" d="M544.07 280.081L472.012 238.45V231.841L544.07 273.472V280.081Z" fill="#F4CE2C"/>
<path id="Vector_185" d="M468.578 247.037L450.274 236.46V229.852L468.578 240.428V247.037Z" fill="#A298E2"/>
<path id="Vector_186" d="M493.738 261.581L472.012 249.027V242.418L493.738 254.972V261.581Z" fill="#FF8657"/>
<path id="Vector_187" d="M468.578 257.613L450.274 247.037V240.428L468.578 251.004V257.613Z" fill="#A298E2"/>
<path id="Vector_188" d="M536.057 296.603L472.012 259.591V252.994L536.057 289.994V296.603Z" fill="#A298E2"/>
<path id="Vector_189" d="M468.578 225.895L450.274 215.319V208.71L468.578 219.287V225.895Z" fill="#A298E2"/>
<path id="Vector_190" d="M532.622 262.907L472.012 227.873V221.264L532.622 256.298V262.907Z" fill="#4D3BFF"/>
<path id="Vector_191" d="M468.578 268.189L450.274 257.613V251.004L468.578 261.581V268.189Z" fill="#A298E2"/>
<path id="Vector_192" d="M480.013 274.799L472.012 270.167V263.559L480.013 268.19V274.799Z" fill="#C33AFC"/>
<path id="Vector_193" d="M468.578 289.331L450.274 278.766V272.157L468.578 282.734V289.331Z" fill="#A298E2"/>
<path id="Vector_194" d="M486.882 299.908L472.012 291.321V284.712L486.882 293.299V299.908Z" fill="#F4CE2C"/>
<path id="Vector_195" d="M468.578 299.907L450.274 289.331V282.722L468.578 293.298V299.907Z" fill="#A298E2"/>
<path id="Vector_196" d="M510.897 324.366L472.012 301.898V295.289L510.897 317.757V324.366Z" fill="#FF8657"/>
<path id="Vector_197" d="M468.578 310.484L450.274 299.908V293.299L468.578 303.875V310.484Z" fill="#A298E2"/>
<path id="Vector_198" d="M533.767 348.16L472.012 312.462V305.854L533.767 341.551V348.16Z" fill="#A298E2"/>
<path id="Vector_199" d="M468.578 278.767L450.274 268.19V261.581L468.578 272.158V278.767Z" fill="#A298E2"/>
<path id="Vector_200" d="M549.781 325.691L472.012 280.744V274.135L549.781 319.07V325.691Z" fill="#4D3BFF"/>
<path id="Vector_201" d="M43.5238 255.599L32.5344 249.955L9.50738 263.221C4.28985 266.236 0.0483398 263.8 0.0483398 257.758V232.649C0.226362 229.364 1.17559 226.166 2.81904 223.317C4.46249 220.467 6.75389 218.045 9.50738 216.247L146.645 136.977C151.863 133.962 156.104 136.41 156.104 142.44V167.634C155.926 170.919 154.977 174.116 153.334 176.966C151.69 179.816 149.399 182.238 146.645 184.035L54.4408 237.268" fill="#B1B4C4"/>
<path id="Vector_202" d="M152.67 136L157.852 138.098L153.466 142.609L150.357 137.628L152.67 136Z" fill="#B1B4C4"/>
<path id="Vector_203" d="M43.5239 255.599L48.9825 257.794L48.9945 253.091L44.1626 252.126L43.5239 255.599Z" fill="#B1B4C4"/>
<path id="Vector_204" d="M9.17007 266.526C9.37492 266.96 3.25365 264.452 3.03676 264.114C2.81986 263.776 10.4594 259.29 10.4594 259.29L9.17007 266.526Z" fill="#B1B4C4"/>
<path id="Vector_205" d="M59.8992 239.451L152.104 186.181C154.855 184.382 157.145 181.959 158.788 179.11C160.432 176.261 161.382 173.065 161.563 169.78V144.635C161.563 138.605 157.321 136.193 152.104 139.16L14.9175 218.43C12.1654 220.229 9.875 222.651 8.23172 225.501C6.58845 228.35 5.63841 231.546 5.4585 234.832V259.977C5.4585 266.007 9.7 268.419 14.9175 265.44L37.9446 252.174L48.9821 257.83L59.8992 239.451Z" fill="#E9EAF2"/>
<path id="Vector_206" d="M149.26 161.037L17.7612 237.015V228.271L149.26 152.281V161.037Z" fill="#8C50FF"/>
<path id="Vector_207" d="M103.857 202.584L17.7612 252.331V243.576L103.857 193.828V202.584Z" fill="#8C50FF"/>
</g>
</g>
</g>
<defs>
<linearGradient id="paint0_linear" x1="387.094" y1="349.174" x2="487.36" y2="174.86" gradientUnits="userSpaceOnUse">
<stop offset="0.21" stop-color="white" stop-opacity="0"/>
<stop offset="1" stop-color="white" stop-opacity="0.2"/>
</linearGradient>
<linearGradient id="paint1_linear" x1="413.033" y1="289.232" x2="385.939" y2="336.335" gradientUnits="userSpaceOnUse">
<stop stop-color="#E9EAF2" stop-opacity="0.8"/>
<stop offset="1" stop-color="#E9EAF2" stop-opacity="0"/>
</linearGradient>
</defs>
</svg>
